<svg width="2357" height="2944" viewBox="0 0 2357 2944" fill="none" xmlns="http://www.w3.org/2000/svg">
<path d="M63.6979 12.103C37.3099 19.4346 12.3879 32.6316 7.98991 41.4297C-5.20409 61.9583 27.0479 97.1504 84.2219 120.612C112.076 132.342 138.464 157.27 147.26 180.731C157.522 207.125 161.92 459.335 158.988 902.167L154.59 1582.55L76.8919 1650C34.3779 1688.12 0.659912 1726.25 0.659912 1736.51C0.659912 1784.9 90.0859 1798.1 437.528 1798.1L689.68 1799.56V2281.99C689.68 2817.2 694.078 2792.27 589.992 2836.26C553.342 2850.92 541.614 2864.12 546.012 2887.58C553.342 2935.97 628.108 2946.24 956.492 2940.37C1166.13 2937.44 1251.16 2930.11 1264.35 2916.91C1289.27 2891.98 1267.28 2856.79 1201.31 2821.6C1173.46 2805.47 1147.07 2786.41 1141.21 2776.14C1135.34 2767.34 1129.48 2650.04 1129.48 2513.67V2268.79H1232.1H1333.25L1403.62 2362.64C1441.74 2413.96 1537.03 2547.39 1613.26 2658.83C1689.49 2768.81 1770.12 2878.78 1792.11 2900.78L1830.23 2943.3H2051.59C2248.04 2943.3 2365.32 2927.17 2341.86 2905.18C2337.46 2900.78 2215.79 2894.91 2072.12 2893.45C1856.62 2890.52 1811.17 2886.12 1811.17 2868.52C1811.17 2856.79 1710.02 2704.29 1585.41 2528.33L1359.64 2210.14H1214.51H1069.37L1073.77 2504.87C1078.17 2793.74 1078.17 2799.6 1113.35 2827.46C1132.41 2843.59 1173.46 2859.72 1204.25 2864.12C1337.65 2886.12 1237.96 2896.38 909.58 2897.85C579.73 2897.85 478.576 2886.12 617.846 2864.12C651.564 2858.26 692.612 2839.19 713.136 2818.67L748.32 2783.47V2261.46V1740.91H380.354C38.7759 1740.91 -46.2521 1730.65 73.9599 1704.25C98.8819 1698.39 138.464 1674.93 161.92 1650L205.9 1606.01V875.773C205.9 145.539 205.9 144.073 175.114 114.746C157.522 98.6167 113.542 81.0208 79.8239 75.1553C44.6399 70.7563 15.3199 61.9583 15.3199 56.093C15.3199 51.6941 235.22 48.7615 502.032 50.2278C1041.52 53.1604 1163.2 66.3574 1305.4 138.208C1416.82 195.395 1468.13 273.11 1469.59 381.619C1471.06 538.517 1369.9 669.02 1195.45 733.539L1107.49 765.798L1188.12 776.063C1435.87 806.856 1627.92 969.619 1627.92 1148.51V1207.16L1727.61 1221.83C1919.65 1252.62 2054.53 1340.6 2117.56 1476.97C2160.08 1570.82 2158.61 1749.71 2114.63 1847.95C2057.46 1974.06 1904.99 2098.7 1734.94 2157.35L1686.56 2173.48L1856.62 2408.09C2057.46 2685.23 2145.42 2779.07 2259.77 2839.19C2355.06 2890.52 2363.85 2893.45 2352.12 2862.66C2347.73 2850.92 2309.61 2818.67 2268.56 2790.8C2176.2 2730.69 2072.12 2620.71 1966.57 2474.08C1922.59 2413.96 1865.41 2334.78 1837.56 2299.58C1811.17 2264.39 1789.18 2224.8 1789.18 2211.6C1789.18 2196.94 1822.9 2172.01 1874.21 2148.55C2058.92 2062.04 2187.93 1878.75 2196.73 1688.12C2205.52 1525.36 2171.81 1432.98 2070.65 1330.34C1987.09 1248.22 1912.32 1210.1 1749.6 1169.04C1692.42 1154.38 1686.56 1148.51 1666.04 1076.66C1624.99 935.893 1513.57 817.12 1380.17 773.13C1347.91 762.866 1320.06 749.669 1320.06 743.803C1320.06 739.404 1350.85 705.679 1387.5 670.487C1484.25 575.175 1516.5 506.257 1516.5 391.883C1515.04 205.659 1418.28 105.948 1166.13 35.5645C1075.24 10.6367 1006.34 6.23779 587.06 1.83862C308.52 -1.09399 91.5519 3.30493 63.6979 12.103Z" fill="#C8AE64"/>
<path d="M543.08 421.21V761.399L774.708 755.534C925.706 751.135 1018.06 742.337 1044.45 729.14C1167.6 670.487 1177.86 372.821 1064.98 223.255C1044.45 196.861 990.21 155.804 946.23 135.275C878.794 101.549 840.678 94.2178 704.34 86.8862L543.08 79.5544V421.21ZM955.026 195.395C1111.89 287.774 1150 616.232 1012.2 680.751C971.152 699.813 918.376 702.746 730.728 701.28L601.72 699.813V422.676V144.073L679.418 139.674C773.242 133.809 890.522 157.27 955.026 195.395Z" fill="#C8AE64"/>
<path d="M543.08 1223.29V1650L620.778 1667.59C661.826 1676.39 708.738 1688.12 723.398 1692.52C748.32 1699.85 749.786 1686.66 745.388 1493.1C742.456 1362.6 735.126 1281.95 723.398 1270.22C714.602 1261.42 672.088 1242.36 628.108 1227.69L550.41 1199.83H925.706L1301 1198.37L1289.27 1133.85C1262.89 988.681 1193.98 896.302 1072.31 842.047C1018.06 818.586 960.89 811.254 773.242 803.923L543.08 795.125V1223.29ZM940.366 861.11C982.88 869.908 1045.92 888.97 1079.64 906.566C1151.47 940.292 1220.37 1035.6 1223.3 1101.59L1224.77 1147.04L913.978 1151.44C669.156 1154.38 601.72 1151.44 600.254 1136.78C597.322 1073.73 604.652 868.441 610.516 858.177C620.778 842.047 846.542 843.514 940.366 861.11ZM663.292 1296.61C685.282 1317.14 689.68 1343.53 689.68 1472.57C689.68 1606.01 686.748 1623.6 664.758 1623.6C600.254 1622.14 595.856 1604.54 598.788 1399.25C601.72 1265.82 611.982 1249.69 663.292 1296.61Z" fill="#C8AE64"/>
<path d="M1070.84 1462.31C1070.84 1619.2 1075.24 1682.26 1088.43 1682.26C1128.01 1682.26 1229.17 1606.01 1252.62 1559.08C1280.48 1498.97 1305.4 1378.73 1305.4 1299.54V1242.36H1188.12H1070.84V1462.31ZM1237.96 1399.25C1236.5 1474.04 1229.17 1498.97 1196.92 1542.96C1174.93 1570.82 1151.47 1594.28 1142.67 1594.28C1128.01 1594.28 1123.62 1325.94 1139.74 1309.81C1145.61 1303.94 1170.53 1301.01 1195.45 1303.94C1239.43 1308.34 1239.43 1308.34 1237.96 1399.25Z" fill="#C8AE64"/>
<path d="M1585.41 1381.66C1525.3 1520.96 1347.91 1652.93 1154.4 1702.79L1078.17 1721.85V1916.87V2113.36L1151.47 2132.42C1192.52 2144.15 1305.4 2157.35 1403.62 2161.75C1575.14 2170.55 1585.41 2169.08 1661.64 2132.42C1756.93 2085.5 1797.98 2019.51 1817.03 1881.68C1833.16 1767.3 1817.03 1564.95 1784.78 1487.23C1762.79 1437.38 1649.91 1301.01 1629.39 1301.01C1624.99 1301.01 1604.46 1337.67 1585.41 1381.66ZM1698.29 1443.24C1755.46 1526.83 1767.19 1582.55 1767.19 1755.57C1767.19 1963.79 1745.2 2026.85 1652.84 2079.63C1604.46 2106.03 1566.35 2114.83 1472.52 2116.29C1347.91 2119.22 1167.6 2092.83 1142.67 2067.9C1135.34 2060.57 1129.48 1990.19 1132.41 1908.07L1136.81 1762.91L1224.77 1732.11C1402.16 1670.53 1519.44 1588.41 1594.2 1469.64C1616.19 1432.98 1642.58 1403.65 1652.84 1403.65C1661.64 1403.65 1682.16 1421.25 1698.29 1443.24Z" fill="#C8AE64"/>
</svg>
