<svg width="680" height="597" viewBox="0 0 680 597" fill="none" xmlns="http://www.w3.org/2000/svg">
<path d="M331.667 3.66697C336.364 -1.08466 343.61 -1.02193 348.352 3.68552C365.952 21.1612 383.501 38.6876 400.999 56.2646C417.587 72.927 434.128 89.6362 450.624 106.39C450.722 96.4264 450.833 86.4632 450.954 76.5C451.03 70.252 455.752 65.3779 462 65.4541C482 65.6978 502 65.988 522 66.3252C527.755 66.4222 532.272 70.7453 532.175 76.5C531.576 112.02 530.827 147.539 529.934 183.059C568.018 225.183 605.832 267.566 643.371 310.21C655.61 324.112 667.819 338.042 680 352C666.661 339.145 653.35 326.263 640.068 313.353C598.531 272.979 557.276 232.334 516.306 191.42C515.252 190.368 514.176 187.489 514.139 186C513.3 152.946 512.589 119.891 512.005 86.8369C499.061 87.0451 486.116 87.2343 473.172 87.4033C473.35 103.119 473.502 118.834 473.622 134.55C473.679 146.189 462.016 150.957 453.764 142.749C430.417 119.654 407.159 96.47 383.99 73.1972C369.252 58.3926 354.552 43.5503 339.886 28.6738C241.783 125.468 142.112 220.693 40.873 314.351C27.2769 326.929 13.6528 339.479 0 352C12.5214 338.347 25.0715 324.723 37.6494 311.127C133.996 206.981 232.001 104.494 331.667 3.66697Z" fill="#0047AB"/>
<path d="M335.758 67.7578C338.158 65.3578 341.842 65.3578 344.242 67.7578C428.242 151.758 511.097 236.903 592.806 323.194C601.884 332.782 610.949 342.384 620 352C610.384 342.949 600.782 333.884 591.194 324.806C506.355 244.472 422.624 163.029 340 80.4804C257.375 163.029 173.645 244.471 88.8057 324.806C79.2178 333.884 69.6162 342.949 60 352C69.0505 342.384 78.1156 332.782 87.1943 323.194C168.903 236.903 251.758 151.758 335.758 67.7578Z" fill="#0047AB"/>
<path d="M597.493 457.028L611.603 418.516H619.654L601.809 464H593.011L575.166 418.516H583.3L597.493 457.028Z" fill="#B20000"/>
<path d="M551.457 464.747C547.196 464.747 543.323 463.779 539.837 461.842C536.406 459.905 533.695 457.166 531.703 453.625C529.766 450.028 528.798 445.878 528.798 441.175C528.798 436.527 529.794 432.432 531.786 428.891C533.833 425.294 536.6 422.555 540.086 420.674C543.572 418.737 547.473 417.769 551.789 417.769C556.105 417.769 560.006 418.737 563.492 420.674C566.978 422.555 569.717 425.267 571.709 428.808C573.756 432.349 574.78 436.472 574.78 441.175C574.78 445.878 573.729 450.028 571.626 453.625C569.579 457.166 566.784 459.905 563.243 461.842C559.702 463.779 555.773 464.747 551.457 464.747ZM551.457 458.107C554.168 458.107 556.714 457.471 559.093 456.198C561.472 454.925 563.381 453.016 564.82 450.471C566.314 447.926 567.061 444.827 567.061 441.175C567.061 437.523 566.342 434.424 564.903 431.879C563.464 429.334 561.583 427.452 559.259 426.235C556.935 424.962 554.417 424.326 551.706 424.326C548.939 424.326 546.394 424.962 544.07 426.235C541.801 427.452 539.975 429.334 538.592 431.879C537.209 434.424 536.517 437.523 536.517 441.175C536.517 444.882 537.181 448.009 538.509 450.554C539.892 453.099 541.718 455.008 543.987 456.281C546.256 457.498 548.746 458.107 551.457 458.107Z" fill="#B20000"/>
<path d="M504.84 417.686C510.373 417.686 514.855 419.374 518.286 422.749C521.717 426.069 523.432 430.883 523.432 437.191V464H515.962V438.27C515.962 433.733 514.828 430.274 512.559 427.895C510.29 425.46 507.192 424.243 503.263 424.243C499.279 424.243 496.097 425.488 493.718 427.978C491.394 430.468 490.232 434.092 490.232 438.851V464H482.679V418.516H490.232V424.99C491.726 422.666 493.746 420.868 496.291 419.595C498.892 418.322 501.741 417.686 504.84 417.686Z" fill="#B20000"/>
<path d="M476.859 439.515C476.859 440.954 476.776 442.475 476.61 444.08H440.256C440.533 448.562 442.054 452.076 444.821 454.621C447.643 457.111 451.046 458.356 455.03 458.356C458.295 458.356 461.006 457.609 463.164 456.115C465.377 454.566 466.927 452.518 467.812 449.973H475.946C474.729 454.344 472.294 457.913 468.642 460.68C464.99 463.391 460.453 464.747 455.03 464.747C450.714 464.747 446.841 463.779 443.41 461.842C440.035 459.905 437.379 457.166 435.442 453.625C433.505 450.028 432.537 445.878 432.537 441.175C432.537 436.472 433.478 432.349 435.359 428.808C437.24 425.267 439.869 422.555 443.244 420.674C446.675 418.737 450.603 417.769 455.03 417.769C459.346 417.769 463.164 418.71 466.484 420.591C469.804 422.472 472.349 425.073 474.12 428.393C475.946 431.658 476.859 435.365 476.859 439.515ZM469.057 437.938C469.057 435.061 468.421 432.598 467.148 430.551C465.875 428.448 464.132 426.871 461.919 425.82C459.761 424.713 457.354 424.16 454.698 424.16C450.88 424.16 447.615 425.377 444.904 427.812C442.248 430.247 440.726 433.622 440.339 437.938H469.057Z" fill="#B20000"/>
<path d="M419.473 464L405.695 440.345H396.565V464H389.012V406.149H407.687C412.059 406.149 415.738 406.896 418.726 408.39C421.77 409.884 424.038 411.904 425.532 414.449C427.026 416.994 427.773 419.899 427.773 423.164C427.773 427.148 426.611 430.662 424.287 433.705C422.019 436.748 418.588 438.768 413.995 439.764L428.52 464H419.473ZM396.565 434.286H407.687C411.782 434.286 414.853 433.29 416.9 431.298C418.948 429.251 419.971 426.539 419.971 423.164C419.971 419.733 418.948 417.077 416.9 415.196C414.908 413.315 411.837 412.374 407.687 412.374H396.565V434.286Z" fill="#B20000"/>
<path d="M336.186 424.741V451.55C336.186 453.763 336.656 455.34 337.597 456.281C338.537 457.166 340.17 457.609 342.494 457.609H348.055V464H341.249C337.043 464 333.889 463.032 331.787 461.095C329.684 459.158 328.633 455.977 328.633 451.55V424.741H322.74V418.516H328.633V407.062H336.186V418.516H348.055V424.741H336.186Z" fill="#B20000"/>
<path d="M318.25 402.58V464H310.697V402.58H318.25Z" fill="#B20000"/>
<path d="M302.094 418.516V464H294.541V457.277C293.103 459.601 291.083 461.427 288.482 462.755C285.937 464.028 283.115 464.664 280.016 464.664C276.475 464.664 273.293 463.945 270.471 462.506C267.649 461.012 265.408 458.799 263.748 455.866C262.144 452.933 261.341 449.364 261.341 445.159V418.516H268.811V444.163C268.811 448.645 269.946 452.103 272.214 454.538C274.483 456.917 277.582 458.107 281.51 458.107C285.55 458.107 288.731 456.862 291.055 454.372C293.379 451.882 294.541 448.258 294.541 443.499V418.516H302.094Z" fill="#B20000"/>
<path d="M238.644 464.747C235.158 464.747 232.032 464.166 229.265 463.004C226.498 461.787 224.313 460.127 222.708 458.024C221.103 455.866 220.218 453.404 220.052 450.637H227.854C228.075 452.906 229.127 454.759 231.008 456.198C232.945 457.637 235.462 458.356 238.561 458.356C241.438 458.356 243.707 457.72 245.367 456.447C247.027 455.174 247.857 453.57 247.857 451.633C247.857 449.641 246.972 448.175 245.201 447.234C243.43 446.238 240.691 445.27 236.984 444.329C233.609 443.444 230.842 442.558 228.684 441.673C226.581 440.732 224.755 439.377 223.206 437.606C221.712 435.78 220.965 433.401 220.965 430.468C220.965 428.144 221.657 426.014 223.04 424.077C224.423 422.14 226.388 420.619 228.933 419.512C231.478 418.35 234.383 417.769 237.648 417.769C242.683 417.769 246.75 419.042 249.849 421.587C252.948 424.132 254.608 427.618 254.829 432.045H247.276C247.11 429.666 246.142 427.757 244.371 426.318C242.656 424.879 240.332 424.16 237.399 424.16C234.688 424.16 232.53 424.741 230.925 425.903C229.32 427.065 228.518 428.587 228.518 430.468C228.518 431.962 228.988 433.207 229.929 434.203C230.925 435.144 232.142 435.918 233.581 436.527C235.075 437.08 237.122 437.717 239.723 438.436C242.988 439.321 245.644 440.207 247.691 441.092C249.738 441.922 251.481 443.195 252.92 444.91C254.414 446.625 255.189 448.866 255.244 451.633C255.244 454.123 254.552 456.364 253.169 458.356C251.786 460.348 249.821 461.925 247.276 463.087C244.786 464.194 241.909 464.747 238.644 464.747Z" fill="#B20000"/>
<path d="M195.762 417.686C201.295 417.686 205.777 419.374 209.208 422.749C212.639 426.069 214.354 430.883 214.354 437.191V464H206.884V438.27C206.884 433.733 205.75 430.274 203.481 427.895C201.212 425.46 198.114 424.243 194.185 424.243C190.201 424.243 187.019 425.488 184.64 427.978C182.316 430.468 181.154 434.092 181.154 438.851V464H173.601V418.516H181.154V424.99C182.648 422.666 184.668 420.868 187.213 419.595C189.814 418.322 192.663 417.686 195.762 417.686Z" fill="#B20000"/>
<path d="M144.497 464.747C140.237 464.747 136.363 463.779 132.877 461.842C129.447 459.905 126.735 457.166 124.743 453.625C122.807 450.028 121.838 445.878 121.838 441.175C121.838 436.527 122.834 432.432 124.826 428.891C126.874 425.294 129.64 422.555 133.126 420.674C136.612 418.737 140.513 417.769 144.829 417.769C149.145 417.769 153.046 418.737 156.532 420.674C160.018 422.555 162.757 425.267 164.749 428.808C166.797 432.349 167.82 436.472 167.82 441.175C167.82 445.878 166.769 450.028 164.666 453.625C162.619 457.166 159.825 459.905 156.283 461.842C152.742 463.779 148.813 464.747 144.497 464.747ZM144.497 458.107C147.209 458.107 149.754 457.471 152.133 456.198C154.513 454.925 156.422 453.016 157.86 450.471C159.354 447.926 160.101 444.827 160.101 441.175C160.101 437.523 159.382 434.424 157.943 431.879C156.505 429.334 154.623 427.452 152.299 426.235C149.975 424.962 147.458 424.326 144.746 424.326C141.98 424.326 139.434 424.962 137.11 426.235C134.842 427.452 133.016 429.334 131.632 431.879C130.249 434.424 129.557 437.523 129.557 441.175C129.557 444.882 130.221 448.009 131.549 450.554C132.933 453.099 134.759 455.008 137.027 456.281C139.296 457.498 141.786 458.107 144.497 458.107Z" fill="#B20000"/>
<path d="M61.874 435.033C61.874 429.389 63.1467 424.326 65.692 419.844C68.2374 415.307 71.6957 411.765 76.067 409.22C80.4937 406.675 85.3907 405.402 90.758 405.402C97.066 405.402 102.572 406.924 107.275 409.967C111.978 413.01 115.409 417.326 117.567 422.915H108.52C106.915 419.429 104.591 416.745 101.548 414.864C98.56 412.983 94.9634 412.042 90.758 412.042C86.7187 412.042 83.0944 412.983 79.885 414.864C76.6757 416.745 74.158 419.429 72.332 422.915C70.506 426.346 69.593 430.385 69.593 435.033C69.593 439.626 70.506 443.665 72.332 447.151C74.158 450.582 76.6757 453.238 79.885 455.119C83.0944 457 86.7187 457.941 90.758 457.941C94.9634 457.941 98.56 457.028 101.548 455.202C104.591 453.321 106.915 450.637 108.52 447.151H117.567C115.409 452.684 111.978 456.973 107.275 460.016C102.572 463.004 97.066 464.498 90.758 464.498C85.3907 464.498 80.4937 463.253 76.067 460.763C71.6957 458.218 68.2374 454.704 65.692 450.222C63.1467 445.74 61.874 440.677 61.874 435.033Z" fill="#B20000"/>
<path d="M369.63 399.548C369.243 400.378 369.049 401.18 369.049 401.955C369.049 402.73 369.104 403.394 369.215 403.947C369.381 404.5 369.63 405.137 369.962 405.856C370.405 406.963 370.626 407.848 370.626 408.512C370.626 409.342 370.322 410.034 369.713 410.587C369.104 411.085 368.357 411.334 367.472 411.334C366.421 411.334 365.591 410.808 364.982 409.757C364.429 408.65 364.152 407.405 364.152 406.022C364.152 401.983 365.646 398.109 368.634 394.402C368.966 394.015 369.298 393.821 369.63 393.821C369.962 393.821 370.432 394.042 371.041 394.485C371.65 394.928 371.954 395.315 371.954 395.647C371.954 395.979 371.816 396.283 371.539 396.56C370.654 397.722 370.017 398.718 369.63 399.548Z" fill="#B20000"/>
<path d="M542 495.5C542.828 495.5 543.5 496.172 543.5 497C543.5 497.828 542.828 498.5 542 498.5H142C141.172 498.5 140.5 497.828 140.5 497C140.5 496.172 141.172 495.5 142 495.5H542Z" fill="#0052CC"/>
<path d="M419.182 596.409C417.29 596.409 415.658 595.991 414.285 595.156C412.922 594.313 411.869 593.136 411.128 591.628C410.395 590.111 410.028 588.347 410.028 586.335C410.028 584.324 410.395 582.551 411.128 581.017C411.869 579.474 412.9 578.273 414.221 577.412C415.551 576.543 417.102 576.108 418.875 576.108C419.898 576.108 420.908 576.278 421.905 576.619C422.902 576.96 423.81 577.514 424.628 578.281C425.446 579.04 426.098 580.045 426.584 581.298C427.07 582.551 427.312 584.094 427.312 585.926V587.205H412.176V584.597H424.244C424.244 583.489 424.023 582.5 423.579 581.631C423.145 580.761 422.523 580.075 421.713 579.572C420.912 579.07 419.966 578.818 418.875 578.818C417.673 578.818 416.633 579.116 415.756 579.713C414.886 580.301 414.217 581.068 413.748 582.014C413.28 582.96 413.045 583.974 413.045 585.057V586.795C413.045 588.278 413.301 589.536 413.812 590.567C414.332 591.59 415.052 592.369 415.973 592.906C416.893 593.435 417.963 593.699 419.182 593.699C419.974 593.699 420.69 593.588 421.329 593.366C421.977 593.136 422.535 592.795 423.004 592.344C423.473 591.884 423.835 591.313 424.091 590.631L427.006 591.449C426.699 592.438 426.183 593.307 425.459 594.057C424.734 594.798 423.839 595.378 422.774 595.795C421.709 596.205 420.511 596.409 419.182 596.409Z" fill="#222222"/>
<path d="M398.817 596.409C396.976 596.409 395.391 595.974 394.061 595.105C392.731 594.236 391.709 593.038 390.993 591.513C390.277 589.987 389.919 588.244 389.919 586.284C389.919 584.29 390.285 582.53 391.018 581.004C391.76 579.47 392.791 578.273 394.112 577.412C395.442 576.543 396.993 576.108 398.766 576.108C400.146 576.108 401.391 576.364 402.498 576.875C403.606 577.386 404.514 578.102 405.221 579.023C405.929 579.943 406.368 581.017 406.538 582.244H403.521C403.291 581.349 402.78 580.557 401.987 579.866C401.203 579.168 400.146 578.818 398.817 578.818C397.641 578.818 396.609 579.125 395.723 579.739C394.845 580.344 394.159 581.2 393.665 582.308C393.179 583.408 392.936 584.699 392.936 586.182C392.936 587.699 393.175 589.02 393.652 590.145C394.138 591.27 394.82 592.143 395.697 592.766C396.584 593.388 397.623 593.699 398.817 593.699C399.601 593.699 400.312 593.563 400.952 593.29C401.591 593.017 402.132 592.625 402.575 592.114C403.018 591.602 403.334 590.989 403.521 590.273H406.538C406.368 591.432 405.946 592.476 405.273 593.405C404.608 594.325 403.726 595.058 402.626 595.604C401.535 596.141 400.266 596.409 398.817 596.409Z" fill="#222222"/>
<path d="M372.798 584.188V596H369.781V576.364H372.696V579.432H372.951C373.411 578.435 374.11 577.634 375.048 577.028C375.985 576.415 377.196 576.108 378.678 576.108C380.008 576.108 381.171 576.381 382.169 576.926C383.166 577.463 383.941 578.281 384.495 579.381C385.049 580.472 385.326 581.852 385.326 583.523V596H382.309V583.727C382.309 582.185 381.909 580.983 381.107 580.122C380.306 579.253 379.207 578.818 377.809 578.818C376.846 578.818 375.985 579.027 375.227 579.445C374.477 579.862 373.884 580.472 373.45 581.273C373.015 582.074 372.798 583.045 372.798 584.188Z" fill="#222222"/>
<path d="M357.061 596.409C355.169 596.409 353.536 595.991 352.164 595.156C350.801 594.313 349.748 593.136 349.007 591.628C348.274 590.111 347.907 588.347 347.907 586.335C347.907 584.324 348.274 582.551 349.007 581.017C349.748 579.474 350.779 578.273 352.1 577.412C353.43 576.543 354.981 576.108 356.754 576.108C357.777 576.108 358.786 576.278 359.784 576.619C360.781 576.96 361.688 577.514 362.507 578.281C363.325 579.04 363.977 580.045 364.463 581.298C364.948 582.551 365.191 584.094 365.191 585.926V587.205H350.055V584.597H362.123C362.123 583.489 361.902 582.5 361.458 581.631C361.024 580.761 360.402 580.075 359.592 579.572C358.791 579.07 357.845 578.818 356.754 578.818C355.552 578.818 354.512 579.116 353.634 579.713C352.765 580.301 352.096 581.068 351.627 582.014C351.159 582.96 350.924 583.974 350.924 585.057V586.795C350.924 588.278 351.18 589.536 351.691 590.567C352.211 591.59 352.931 592.369 353.852 592.906C354.772 593.435 355.842 593.699 357.061 593.699C357.853 593.699 358.569 593.588 359.208 593.366C359.856 593.136 360.414 592.795 360.883 592.344C361.352 591.884 361.714 591.313 361.97 590.631L364.884 591.449C364.578 592.438 364.062 593.307 363.338 594.057C362.613 594.798 361.718 595.378 360.653 595.795C359.588 596.205 358.39 596.409 357.061 596.409Z" fill="#222222"/>
<path d="M343.302 569.818V596H340.285V569.818H343.302Z" fill="#222222"/>
<path d="M334.759 569.818V596H331.742V569.818H334.759Z" fill="#222222"/>
<path d="M319.022 596.409C317.13 596.409 315.497 595.991 314.125 595.156C312.762 594.313 311.709 593.136 310.968 591.628C310.235 590.111 309.868 588.347 309.868 586.335C309.868 584.324 310.235 582.551 310.968 581.017C311.709 579.474 312.74 578.273 314.061 577.412C315.391 576.543 316.942 576.108 318.715 576.108C319.737 576.108 320.747 576.278 321.745 576.619C322.742 576.96 323.649 577.514 324.468 578.281C325.286 579.04 325.938 580.045 326.424 581.298C326.909 582.551 327.152 584.094 327.152 585.926V587.205H312.016V584.597H324.084C324.084 583.489 323.862 582.5 323.419 581.631C322.985 580.761 322.362 580.075 321.553 579.572C320.752 579.07 319.806 578.818 318.715 578.818C317.513 578.818 316.473 579.116 315.595 579.713C314.726 580.301 314.057 581.068 313.588 582.014C313.12 582.96 312.885 583.974 312.885 585.057V586.795C312.885 588.278 313.141 589.536 313.652 590.567C314.172 591.59 314.892 592.369 315.813 592.906C316.733 593.435 317.803 593.699 319.022 593.699C319.814 593.699 320.53 593.588 321.169 593.366C321.817 593.136 322.375 592.795 322.844 592.344C323.313 591.884 323.675 591.313 323.931 590.631L326.845 591.449C326.539 592.438 326.023 593.307 325.299 594.057C324.574 594.798 323.679 595.378 322.614 595.795C321.549 596.205 320.351 596.409 319.022 596.409Z" fill="#222222"/>
<path d="M298.657 596.409C296.816 596.409 295.23 595.974 293.901 595.105C292.571 594.236 291.549 593.038 290.833 591.513C290.117 589.987 289.759 588.244 289.759 586.284C289.759 584.29 290.125 582.53 290.858 581.004C291.6 579.47 292.631 578.273 293.952 577.412C295.282 576.543 296.833 576.108 298.605 576.108C299.986 576.108 301.23 576.364 302.338 576.875C303.446 577.386 304.354 578.102 305.061 579.023C305.769 579.943 306.208 581.017 306.378 582.244H303.361C303.131 581.349 302.62 580.557 301.827 579.866C301.043 579.168 299.986 578.818 298.657 578.818C297.48 578.818 296.449 579.125 295.563 579.739C294.685 580.344 293.999 581.2 293.505 582.308C293.019 583.408 292.776 584.699 292.776 586.182C292.776 587.699 293.014 589.02 293.492 590.145C293.978 591.27 294.659 592.143 295.537 592.766C296.424 593.388 297.463 593.699 298.657 593.699C299.441 593.699 300.152 593.563 300.791 593.29C301.431 593.017 301.972 592.625 302.415 592.114C302.858 591.602 303.174 590.989 303.361 590.273H306.378C306.208 591.432 305.786 592.476 305.112 593.405C304.448 594.325 303.566 595.058 302.466 595.604C301.375 596.141 300.105 596.409 298.657 596.409Z" fill="#222222"/>
<path d="M274.297 576.364L279.001 584.392L283.706 576.364H287.183L280.842 586.182L287.183 596H283.706L279.001 588.381L274.297 596H270.819L277.058 586.182L270.819 576.364H274.297Z" fill="#222222"/>
<path d="M259.854 596.409C257.962 596.409 256.329 595.991 254.957 595.156C253.594 594.313 252.541 593.136 251.8 591.628C251.067 590.111 250.7 588.347 250.7 586.335C250.7 584.324 251.067 582.551 251.8 581.017C252.541 579.474 253.572 578.273 254.893 577.412C256.223 576.543 257.774 576.108 259.547 576.108C260.57 576.108 261.579 576.278 262.577 576.619C263.574 576.96 264.481 577.514 265.3 578.281C266.118 579.04 266.77 580.045 267.256 581.298C267.741 582.551 267.984 584.094 267.984 585.926V587.205H252.848V584.597H264.916C264.916 583.489 264.695 582.5 264.251 581.631C263.817 580.761 263.195 580.075 262.385 579.572C261.584 579.07 260.638 578.818 259.547 578.818C258.345 578.818 257.305 579.116 256.427 579.713C255.558 580.301 254.889 581.068 254.42 582.014C253.952 582.96 253.717 583.974 253.717 585.057V586.795C253.717 588.278 253.973 589.536 254.484 590.567C255.004 591.59 255.724 592.369 256.645 592.906C257.565 593.435 258.635 593.699 259.854 593.699C260.646 593.699 261.362 593.588 262.001 593.366C262.649 593.136 263.207 592.795 263.676 592.344C264.145 591.884 264.507 591.313 264.763 590.631L267.677 591.449C267.371 592.438 266.855 593.307 266.131 594.057C265.406 594.798 264.511 595.378 263.446 595.795C262.381 596.205 261.183 596.409 259.854 596.409Z" fill="#222222"/>
<path d="M476.304 552V532.364H479.219V535.33H479.424C479.781 534.358 480.429 533.57 481.367 532.964C482.304 532.359 483.361 532.057 484.537 532.057C484.759 532.057 485.036 532.061 485.368 532.07C485.701 532.078 485.952 532.091 486.122 532.108V535.176C486.02 535.151 485.786 535.112 485.419 535.061C485.061 535.001 484.682 534.972 484.281 534.972C483.327 534.972 482.475 535.172 481.725 535.572C480.983 535.964 480.395 536.51 479.96 537.209C479.534 537.899 479.321 538.688 479.321 539.574V552H476.304Z" fill="#222222"/>
<path d="M461.797 552.46C460.553 552.46 459.424 552.226 458.41 551.757C457.395 551.28 456.59 550.594 455.994 549.699C455.397 548.795 455.099 547.705 455.099 546.426C455.099 545.301 455.32 544.389 455.763 543.69C456.207 542.983 456.799 542.429 457.54 542.028C458.282 541.628 459.1 541.329 459.995 541.133C460.898 540.929 461.806 540.767 462.718 540.648C463.911 540.494 464.878 540.379 465.62 540.303C466.37 540.217 466.915 540.077 467.256 539.881C467.606 539.685 467.78 539.344 467.78 538.858V538.756C467.78 537.494 467.435 536.514 466.745 535.815C466.063 535.116 465.028 534.767 463.638 534.767C462.198 534.767 461.069 535.082 460.251 535.713C459.432 536.344 458.857 537.017 458.525 537.733L455.661 536.71C456.172 535.517 456.854 534.588 457.707 533.923C458.567 533.25 459.505 532.781 460.519 532.517C461.542 532.244 462.547 532.108 463.536 532.108C464.167 532.108 464.891 532.185 465.709 532.338C466.536 532.483 467.333 532.785 468.1 533.246C468.876 533.706 469.519 534.401 470.03 535.33C470.542 536.258 470.797 537.503 470.797 539.062V552H467.78V549.341H467.627C467.422 549.767 467.082 550.223 466.604 550.709C466.127 551.195 465.492 551.608 464.699 551.949C463.907 552.29 462.94 552.46 461.797 552.46ZM462.258 549.75C463.451 549.75 464.457 549.516 465.275 549.047C466.101 548.578 466.724 547.973 467.141 547.231C467.567 546.49 467.78 545.71 467.78 544.892V542.131C467.653 542.284 467.371 542.425 466.937 542.553C466.511 542.672 466.016 542.778 465.454 542.872C464.9 542.957 464.359 543.034 463.83 543.102C463.31 543.162 462.888 543.213 462.565 543.256C461.78 543.358 461.047 543.524 460.366 543.754C459.692 543.976 459.147 544.312 458.729 544.764C458.32 545.207 458.116 545.812 458.116 546.58C458.116 547.628 458.503 548.42 459.279 548.957C460.063 549.486 461.056 549.75 462.258 549.75Z" fill="#222222"/>
<path d="M434.082 559.364V532.364H436.996V535.483H437.354C437.576 535.142 437.883 534.707 438.275 534.179C438.675 533.642 439.246 533.165 439.988 532.747C440.738 532.321 441.752 532.108 443.03 532.108C444.684 532.108 446.141 532.521 447.403 533.348C448.664 534.175 449.648 535.347 450.356 536.864C451.063 538.381 451.417 540.17 451.417 542.233C451.417 544.312 451.063 546.115 450.356 547.641C449.648 549.158 448.668 550.334 447.415 551.169C446.163 551.996 444.718 552.409 443.082 552.409C441.82 552.409 440.81 552.2 440.052 551.783C439.293 551.356 438.709 550.875 438.3 550.338C437.891 549.793 437.576 549.341 437.354 548.983H437.099V559.364H434.082ZM437.047 542.182C437.047 543.665 437.265 544.973 437.699 546.106C438.134 547.231 438.769 548.114 439.604 548.753C440.439 549.383 441.462 549.699 442.672 549.699C443.934 549.699 444.986 549.366 445.83 548.702C446.682 548.028 447.322 547.125 447.748 545.991C448.182 544.849 448.4 543.58 448.4 542.182C448.4 540.801 448.187 539.557 447.761 538.449C447.343 537.332 446.708 536.45 445.856 535.803C445.012 535.146 443.951 534.818 442.672 534.818C441.445 534.818 440.414 535.129 439.579 535.751C438.743 536.365 438.113 537.226 437.687 538.334C437.261 539.433 437.047 540.716 437.047 542.182Z" fill="#222222"/>
<path d="M405.915 540.187V552H402.898V532.364H405.813V535.432H406.068C406.529 534.435 407.227 533.633 408.165 533.028C409.102 532.415 410.313 532.108 411.796 532.108C413.125 532.108 414.289 532.381 415.286 532.926C416.283 533.463 417.058 534.281 417.612 535.381C418.166 536.472 418.443 537.852 418.443 539.523V552H415.426V539.727C415.426 538.185 415.026 536.983 414.225 536.122C413.424 535.253 412.324 534.818 410.926 534.818C409.963 534.818 409.102 535.027 408.344 535.445C407.594 535.862 407.002 536.472 406.567 537.273C406.132 538.074 405.915 539.045 405.915 540.187Z" fill="#222222"/>
<path d="M389.395 552.409C387.622 552.409 386.067 551.987 384.729 551.143C383.399 550.3 382.359 549.119 381.609 547.602C380.868 546.085 380.497 544.312 380.497 542.284C380.497 540.239 380.868 538.453 381.609 536.928C382.359 535.402 383.399 534.217 384.729 533.374C386.067 532.53 387.622 532.108 389.395 532.108C391.168 532.108 392.719 532.53 394.048 533.374C395.386 534.217 396.426 535.402 397.168 536.928C397.918 538.453 398.293 540.239 398.293 542.284C398.293 544.312 397.918 546.085 397.168 547.602C396.426 549.119 395.386 550.3 394.048 551.143C392.719 551.987 391.168 552.409 389.395 552.409ZM389.395 549.699C390.741 549.699 391.849 549.354 392.719 548.663C393.588 547.973 394.231 547.065 394.649 545.94C395.067 544.815 395.275 543.597 395.275 542.284C395.275 540.972 395.067 539.749 394.649 538.615C394.231 537.481 393.588 536.565 392.719 535.866C391.849 535.168 390.741 534.818 389.395 534.818C388.048 534.818 386.94 535.168 386.071 535.866C385.202 536.565 384.558 537.481 384.141 538.615C383.723 539.749 383.514 540.972 383.514 542.284C383.514 543.597 383.723 544.815 384.141 545.94C384.558 547.065 385.202 547.973 386.071 548.663C386.94 549.354 388.048 549.699 389.395 549.699Z" fill="#222222"/>
<path d="M372.875 552V532.364H375.892V552H372.875ZM374.409 529.091C373.821 529.091 373.314 528.891 372.887 528.49C372.47 528.089 372.261 527.608 372.261 527.045C372.261 526.483 372.47 526.001 372.887 525.601C373.314 525.2 373.821 525 374.409 525C374.997 525 375.5 525.2 375.917 525.601C376.343 526.001 376.556 526.483 376.556 527.045C376.556 527.608 376.343 528.089 375.917 528.49C375.5 528.891 374.997 529.091 374.409 529.091Z" fill="#222222"/>
<path d="M368.336 532.364V534.92H358.16V532.364H368.336ZM361.126 527.659H364.143V546.375C364.143 547.227 364.267 547.866 364.514 548.293C364.77 548.71 365.093 548.991 365.485 549.136C365.886 549.273 366.308 549.341 366.751 549.341C367.083 549.341 367.356 549.324 367.569 549.29C367.782 549.247 367.953 549.213 368.081 549.187L368.694 551.898C368.49 551.974 368.204 552.051 367.838 552.128C367.471 552.213 367.007 552.256 366.444 552.256C365.592 552.256 364.757 552.072 363.939 551.706C363.129 551.339 362.456 550.781 361.919 550.031C361.39 549.281 361.126 548.335 361.126 547.193V527.659Z" fill="#222222"/>
<path d="M345.29 552.46C344.045 552.46 342.916 552.226 341.902 551.757C340.888 551.28 340.082 550.594 339.486 549.699C338.889 548.795 338.591 547.705 338.591 546.426C338.591 545.301 338.812 544.389 339.256 543.69C339.699 542.983 340.291 542.429 341.033 542.028C341.774 541.628 342.592 541.329 343.487 541.133C344.391 540.929 345.298 540.767 346.21 540.648C347.403 540.494 348.371 540.379 349.112 540.303C349.862 540.217 350.408 540.077 350.748 539.881C351.098 539.685 351.273 539.344 351.273 538.858V538.756C351.273 537.494 350.927 536.514 350.237 535.815C349.555 535.116 348.52 534.767 347.131 534.767C345.69 534.767 344.561 535.082 343.743 535.713C342.925 536.344 342.349 537.017 342.017 537.733L339.153 536.71C339.665 535.517 340.347 534.588 341.199 533.923C342.06 533.25 342.997 532.781 344.011 532.517C345.034 532.244 346.04 532.108 347.028 532.108C347.659 532.108 348.383 532.185 349.202 532.338C350.028 532.483 350.825 532.785 351.592 533.246C352.368 533.706 353.011 534.401 353.523 535.33C354.034 536.258 354.29 537.503 354.29 539.062V552H351.273V549.341H351.119C350.915 549.767 350.574 550.223 350.096 550.709C349.619 551.195 348.984 551.608 348.192 551.949C347.399 552.29 346.432 552.46 345.29 552.46ZM345.75 549.75C346.943 549.75 347.949 549.516 348.767 549.047C349.594 548.578 350.216 547.973 350.633 547.231C351.06 546.49 351.273 545.71 351.273 544.892V542.131C351.145 542.284 350.864 542.425 350.429 542.553C350.003 542.672 349.508 542.778 348.946 542.872C348.392 542.957 347.851 543.034 347.322 543.102C346.802 543.162 346.381 543.213 346.057 543.256C345.273 543.358 344.54 543.524 343.858 543.754C343.185 543.976 342.639 544.312 342.221 544.764C341.812 545.207 341.608 545.812 341.608 546.58C341.608 547.628 341.996 548.42 342.771 548.957C343.555 549.486 344.548 549.75 345.75 549.75Z" fill="#222222"/>
<path d="M336.127 532.364L328.865 552H325.797L318.536 532.364H321.809L327.229 548.011H327.434L332.854 532.364H336.127Z" fill="#222222"/>
<path d="M307.27 552.409C305.497 552.409 303.942 551.987 302.604 551.143C301.274 550.3 300.234 549.119 299.484 547.602C298.743 546.085 298.372 544.312 298.372 542.284C298.372 540.239 298.743 538.453 299.484 536.928C300.234 535.402 301.274 534.217 302.604 533.374C303.942 532.53 305.497 532.108 307.27 532.108C309.043 532.108 310.594 532.53 311.923 533.374C313.261 534.217 314.301 535.402 315.043 536.928C315.793 538.453 316.168 540.239 316.168 542.284C316.168 544.312 315.793 546.085 315.043 547.602C314.301 549.119 313.261 550.3 311.923 551.143C310.594 551.987 309.043 552.409 307.27 552.409ZM307.27 549.699C308.616 549.699 309.724 549.354 310.594 548.663C311.463 547.973 312.106 547.065 312.524 545.94C312.942 544.815 313.15 543.597 313.15 542.284C313.15 540.972 312.942 539.749 312.524 538.615C312.106 537.481 311.463 536.565 310.594 535.866C309.724 535.168 308.616 534.818 307.27 534.818C305.923 534.818 304.815 535.168 303.946 535.866C303.077 536.565 302.433 537.481 302.016 538.615C301.598 539.749 301.389 540.972 301.389 542.284C301.389 543.597 301.598 544.815 302.016 545.94C302.433 547.065 303.077 547.973 303.946 548.663C304.815 549.354 305.923 549.699 307.27 549.699Z" fill="#222222"/>
<path d="M281.251 540.187V552H278.234V532.364H281.149V535.432H281.404C281.865 534.435 282.563 533.633 283.501 533.028C284.438 532.415 285.649 532.108 287.132 532.108C288.461 532.108 289.625 532.381 290.622 532.926C291.619 533.463 292.394 534.281 292.948 535.381C293.502 536.472 293.779 537.852 293.779 539.523V552H290.762V539.727C290.762 538.185 290.362 536.983 289.561 536.122C288.759 535.253 287.66 534.818 286.262 534.818C285.299 534.818 284.438 535.027 283.68 535.445C282.93 535.862 282.338 536.472 281.903 537.273C281.468 538.074 281.251 539.045 281.251 540.187Z" fill="#222222"/>
<path d="M265.514 552.409C263.622 552.409 261.99 551.991 260.617 551.156C259.254 550.312 258.201 549.136 257.46 547.628C256.727 546.111 256.36 544.347 256.36 542.335C256.36 540.324 256.727 538.551 257.46 537.017C258.201 535.474 259.233 534.273 260.554 533.412C261.883 532.543 263.434 532.108 265.207 532.108C266.23 532.108 267.24 532.278 268.237 532.619C269.234 532.96 270.142 533.514 270.96 534.281C271.778 535.04 272.43 536.045 272.916 537.298C273.402 538.551 273.644 540.094 273.644 541.926V543.205H258.508V540.597H270.576C270.576 539.489 270.355 538.5 269.911 537.631C269.477 536.761 268.855 536.075 268.045 535.572C267.244 535.07 266.298 534.818 265.207 534.818C264.005 534.818 262.965 535.116 262.088 535.713C261.218 536.301 260.549 537.068 260.081 538.014C259.612 538.96 259.377 539.974 259.377 541.057V542.795C259.377 544.278 259.633 545.535 260.144 546.567C260.664 547.589 261.384 548.369 262.305 548.906C263.225 549.435 264.295 549.699 265.514 549.699C266.306 549.699 267.022 549.588 267.661 549.366C268.309 549.136 268.867 548.795 269.336 548.344C269.805 547.884 270.167 547.312 270.423 546.631L273.338 547.449C273.031 548.437 272.515 549.307 271.791 550.057C271.066 550.798 270.171 551.378 269.106 551.795C268.041 552.205 266.843 552.409 265.514 552.409ZM263.673 529.705L266.792 523.773H270.321L266.332 529.705H263.673Z" fill="#222222"/>
<path d="M244.484 552V532.364H247.399V535.33H247.603C247.961 534.358 248.609 533.57 249.546 532.964C250.484 532.359 251.541 532.057 252.717 532.057C252.938 532.057 253.215 532.061 253.548 532.07C253.88 532.078 254.132 532.091 254.302 532.108V535.176C254.2 535.151 253.965 535.112 253.599 535.061C253.241 535.001 252.862 534.972 252.461 534.972C251.507 534.972 250.654 535.172 249.904 535.572C249.163 535.964 248.575 536.51 248.14 537.209C247.714 537.899 247.501 538.688 247.501 539.574V552H244.484Z" fill="#222222"/>
<path d="M219.852 552.46C218.608 552.46 217.479 552.226 216.464 551.757C215.45 551.28 214.645 550.594 214.048 549.699C213.452 548.795 213.153 547.705 213.153 546.426C213.153 545.301 213.375 544.389 213.818 543.69C214.261 542.983 214.854 542.429 215.595 542.028C216.337 541.628 217.155 541.329 218.05 541.133C218.953 540.929 219.861 540.767 220.773 540.648C221.966 540.494 222.933 540.379 223.675 540.303C224.425 540.217 224.97 540.077 225.311 539.881C225.66 539.685 225.835 539.344 225.835 538.858V538.756C225.835 537.494 225.49 536.514 224.8 535.815C224.118 535.116 223.082 534.767 221.693 534.767C220.253 534.767 219.123 535.082 218.305 535.713C217.487 536.344 216.912 537.017 216.579 537.733L213.716 536.71C214.227 535.517 214.909 534.588 215.761 533.923C216.622 533.25 217.56 532.781 218.574 532.517C219.597 532.244 220.602 532.108 221.591 532.108C222.222 532.108 222.946 532.185 223.764 532.338C224.591 532.483 225.388 532.785 226.155 533.246C226.93 533.706 227.574 534.401 228.085 535.33C228.597 536.258 228.852 537.503 228.852 539.062V552H225.835V549.341H225.682C225.477 549.767 225.136 550.223 224.659 550.709C224.182 551.195 223.547 551.608 222.754 551.949C221.962 552.29 220.994 552.46 219.852 552.46ZM220.312 549.75C221.506 549.75 222.511 549.516 223.329 549.047C224.156 548.578 224.778 547.973 225.196 547.231C225.622 546.49 225.835 545.71 225.835 544.892V542.131C225.707 542.284 225.426 542.425 224.991 542.553C224.565 542.672 224.071 542.778 223.508 542.872C222.954 542.957 222.413 543.034 221.885 543.102C221.365 543.162 220.943 543.213 220.619 543.256C219.835 543.358 219.102 543.524 218.42 543.754C217.747 543.976 217.202 544.312 216.784 544.764C216.375 545.207 216.17 545.812 216.17 546.58C216.17 547.628 216.558 548.42 217.334 548.957C218.118 549.486 219.111 549.75 220.312 549.75Z" fill="#222222"/>
<path d="M194.233 552V525.818H197.403V549.187H209.574V552H194.233Z" fill="#222222"/>
<path d="M342 292H402V352H342V292Z" fill="#0047AB"/>
<path d="M342 222H402V282H342V222Z" fill="#0047AB"/>
<path d="M274 222H334V282H274V222Z" fill="#0047AB"/>
<path d="M274 292H334V352H274V292Z" fill="#0047AB"/>
</svg>
