<svg width="871" height="437" viewBox="0 0 871 437" fill="none" xmlns="http://www.w3.org/2000/svg">
<path d="M209.529 269.413L177.738 277.931C175.611 278.501 174.345 280.683 174.905 282.812L194.846 358.615C195.187 359.911 196.159 360.944 197.418 361.403C202.497 363.252 205.843 365.04 210.258 368.786C211.291 369.662 212.682 370.005 213.991 369.655L298.551 346.997C300.684 346.425 301.951 344.232 301.379 342.098L277.928 254.576C277.356 252.442 275.162 251.176 273.029 251.748L242.506 259.926C240.372 260.498 239.106 262.691 239.678 264.825L244.357 282.289C244.929 284.422 243.662 286.616 241.529 287.188L223.843 291.926C221.709 292.498 219.516 291.232 218.944 289.098L214.428 272.241C213.856 270.107 211.662 268.841 209.529 269.413Z" fill="#B89268"/>
<path d="M315.178 371.598L313.091 363.812C312.521 361.684 310.336 360.417 308.205 360.981L223.826 383.289C221.481 383.909 220.263 386.447 220.945 388.774C221.657 391.199 221.953 393.276 222.129 395.643C222.319 398.188 224.723 399.976 227.187 399.316L312.349 376.497C314.483 375.925 315.749 373.732 315.178 371.598Z" fill="#B89268"/>
<path d="M42.3923 418.962L42.3923 178.991C42.3923 177.556 43.1618 176.23 44.4085 175.518L60.4085 166.379C63.0751 164.856 66.3923 166.782 66.3923 169.853L66.3923 418.962C66.3923 421.171 64.6015 422.962 62.3923 422.962H46.3923C44.1832 422.962 42.3923 421.171 42.3923 418.962Z" fill="black"/>
<path d="M7.85632 157.962L177.597 59.9615C179.51 58.857 181.957 59.5125 183.061 61.4256L191.061 75.2821C192.166 77.1952 191.51 79.6416 189.597 80.7462L19.8563 178.746C17.9432 179.851 15.4968 179.195 14.3922 177.282L6.39222 163.426C5.28765 161.512 5.94316 159.066 7.85632 157.962Z" fill="black"/>
<path d="M266.851 136.746L169.856 80.7462C167.943 79.6416 167.288 77.1952 168.392 75.2821L176.392 61.4256C177.497 59.5125 179.943 58.857 181.856 59.9615L278.851 115.962C280.764 117.066 281.42 119.512 280.315 121.426L272.315 135.282C271.211 137.195 268.764 137.851 266.851 136.746Z" fill="black"/>
<rect x="140.392" y="133.962" width="36.9231" height="36.9231" rx="4" fill="black"/>
<rect x="183.469" y="133.962" width="36.9231" height="36.9231" rx="4" fill="black"/>
<rect x="140.392" y="177.038" width="36.9231" height="36.9231" rx="4" fill="black"/>
<rect x="183.469" y="177.038" width="36.9231" height="36.9231" rx="4" fill="black"/>
<path d="M180.009 376.578C194.644 376.578 206.509 388.443 206.509 403.078C206.509 417.714 194.644 429.578 180.009 429.578C165.373 429.578 153.509 417.714 153.509 403.078C153.509 388.443 165.373 376.578 180.009 376.578Z" stroke="#B89268" stroke-width="14"/>
<path d="M175.516 354.821L149.576 258.013C149.161 256.465 147.864 255.315 146.278 255.088L89.8923 247.033V259.009C89.8923 260.993 91.3455 262.676 93.3074 262.966L134.647 269.077C136.224 269.311 137.513 270.459 137.925 271.999L161.206 358.885C161.834 361.227 164.372 362.447 166.65 361.619C168.495 360.949 170.171 360.454 171.999 360.092C174.451 359.607 176.163 357.235 175.516 354.821Z" fill="#B89268"/>
<path d="M385.347 192.48C382.723 192.48 380.307 192.064 378.099 191.232C375.923 190.368 374.019 189.168 372.387 187.632C370.755 186.064 369.491 184.224 368.595 182.112C367.699 180 367.251 177.696 367.251 175.2C367.251 172.704 367.699 170.4 368.595 168.288C369.491 166.176 370.755 164.352 372.387 162.816C374.051 161.248 375.987 160.048 378.195 159.216C380.403 158.352 382.819 157.92 385.443 157.92C388.291 157.92 390.851 158.384 393.123 159.312C395.427 160.24 397.363 161.6 398.931 163.392L394.995 167.232C393.683 165.92 392.259 164.96 390.723 164.352C389.219 163.712 387.555 163.392 385.731 163.392C383.971 163.392 382.339 163.68 380.835 164.256C379.331 164.832 378.035 165.648 376.947 166.704C375.859 167.76 375.011 169.008 374.403 170.448C373.827 171.888 373.539 173.472 373.539 175.2C373.539 176.896 373.827 178.464 374.403 179.904C375.011 181.344 375.859 182.608 376.947 183.696C378.035 184.752 379.315 185.568 380.787 186.144C382.259 186.72 383.891 187.008 385.683 187.008C387.347 187.008 388.947 186.752 390.483 186.24C392.051 185.696 393.539 184.8 394.947 183.552L398.499 188.208C396.739 189.616 394.691 190.688 392.355 191.424C390.051 192.128 387.715 192.48 385.347 192.48ZM398.499 188.208L392.595 187.392V174.816H398.499V188.208ZM430.777 192.48C426.169 192.48 422.553 191.184 419.929 188.592C417.337 186 416.041 182.256 416.041 177.36V158.4H422.281V177.12C422.281 180.576 423.017 183.088 424.489 184.656C425.993 186.224 428.105 187.008 430.825 187.008C433.545 187.008 435.641 186.224 437.113 184.656C438.585 183.088 439.321 180.576 439.321 177.12V158.4H445.465V177.36C445.465 182.256 444.153 186 441.529 188.592C438.937 191.184 435.353 192.48 430.777 192.48ZM463.804 192V158.4H470.044V192H463.804ZM488.732 192V158.4H494.972V186.72H512.54V192H488.732ZM527.067 192V158.4H533.307V186.72H550.875V192H527.067ZM560.696 192L575.816 158.4H581.96L597.128 192H590.6L577.592 161.712H580.088L567.128 192H560.696ZM567.656 184.224L569.336 179.328H587.48L589.16 184.224H567.656ZM624.746 192.48C620.138 192.48 616.522 191.184 613.898 188.592C611.306 186 610.01 182.256 610.01 177.36V158.4H616.25V177.12C616.25 180.576 616.986 183.088 618.458 184.656C619.962 186.224 622.074 187.008 624.794 187.008C627.514 187.008 629.61 186.224 631.082 184.656C632.554 183.088 633.29 180.576 633.29 177.12V158.4H639.434V177.36C639.434 182.256 638.122 186 635.498 188.592C632.906 191.184 629.322 192.48 624.746 192.48ZM657.773 192V158.4H662.909L677.597 182.928H674.909L689.357 158.4H694.493L694.541 192H688.637L688.589 167.664H689.837L677.549 188.16H674.765L662.285 167.664H663.725V192H657.773ZM713.217 192V158.4H737.745V163.632H719.457V186.768H738.417V192H713.217ZM718.977 177.504V172.368H735.681V177.504H718.977Z" fill="black"/>
<path d="M307.485 296L279.089 209.2H299.921L324.597 286.08H314.181L339.973 209.2H358.573L383.373 286.08H373.329L398.625 209.2H417.845L389.449 296H367.873L345.925 228.544H351.629L329.061 296H307.485ZM429.06 296V209.2H449.148V296H429.06ZM469.747 296V209.2H506.823C518.892 209.2 528.275 212.011 534.971 217.632C541.667 223.171 545.015 230.859 545.015 240.696C545.015 247.144 543.486 252.724 540.427 257.436C537.368 262.065 533.028 265.62 527.407 268.1C521.786 270.58 515.09 271.82 507.319 271.82H480.907L489.835 263.016V296H469.747ZM524.927 296L503.227 264.504H524.679L546.627 296H524.927ZM489.835 265.248L480.907 255.824H506.203C512.403 255.824 517.032 254.501 520.091 251.856C523.15 249.128 524.679 245.408 524.679 240.696C524.679 235.901 523.15 232.181 520.091 229.536C517.032 226.891 512.403 225.568 506.203 225.568H480.907L489.835 216.02V265.248ZM577.7 296V225.568H549.924V209.2H625.564V225.568H597.788V296H577.7ZM677.321 297.488C670.46 297.488 664.094 296.372 658.225 294.14C652.438 291.908 647.396 288.767 643.097 284.716C638.881 280.665 635.574 275.912 633.177 270.456C630.862 265 629.705 259.048 629.705 252.6C629.705 246.152 630.862 240.2 633.177 234.744C635.574 229.288 638.922 224.535 643.221 220.484C647.52 216.433 652.562 213.292 658.349 211.06C664.136 208.828 670.418 207.712 677.197 207.712C684.058 207.712 690.341 208.828 696.045 211.06C701.832 213.292 706.833 216.433 711.049 220.484C715.348 224.535 718.696 229.288 721.093 234.744C723.49 240.117 724.689 246.069 724.689 252.6C724.689 259.048 723.49 265.041 721.093 270.58C718.696 276.036 715.348 280.789 711.049 284.84C706.833 288.808 701.832 291.908 696.045 294.14C690.341 296.372 684.1 297.488 677.321 297.488ZM677.197 280.376C681.082 280.376 684.637 279.715 687.861 278.392C691.168 277.069 694.061 275.168 696.541 272.688C699.021 270.208 700.922 267.273 702.245 263.884C703.65 260.495 704.353 256.733 704.353 252.6C704.353 248.467 703.65 244.705 702.245 241.316C700.922 237.927 699.021 234.992 696.541 232.512C694.144 230.032 691.292 228.131 687.985 226.808C684.678 225.485 681.082 224.824 677.197 224.824C673.312 224.824 669.716 225.485 666.409 226.808C663.185 228.131 660.333 230.032 657.853 232.512C655.373 234.992 653.43 237.927 652.025 241.316C650.702 244.705 650.041 248.467 650.041 252.6C650.041 256.651 650.702 260.412 652.025 263.884C653.43 267.273 655.332 270.208 657.729 272.688C660.209 275.168 663.102 277.069 666.409 278.392C669.716 279.715 673.312 280.376 677.197 280.376ZM739.786 296V209.2H756.402L807.614 271.696H799.554V209.2H819.394V296H802.902L751.566 233.504H759.626V296H739.786Z" fill="#B89268"/>
<path d="M331.327 330V313.2H338.671C340.495 313.2 342.095 313.552 343.471 314.256C344.847 314.96 345.919 315.936 346.687 317.184C347.455 318.432 347.839 319.904 347.839 321.6C347.839 323.28 347.455 324.752 346.687 326.016C345.919 327.264 344.847 328.24 343.471 328.944C342.095 329.648 340.495 330 338.671 330H331.327ZM334.447 327.36H338.527C339.775 327.36 340.863 327.12 341.791 326.64C342.719 326.16 343.431 325.488 343.927 324.624C344.439 323.76 344.695 322.752 344.695 321.6C344.695 320.432 344.439 319.424 343.927 318.576C343.431 317.712 342.719 317.04 341.791 316.56C340.863 316.08 339.775 315.84 338.527 315.84H334.447V327.36ZM355.955 330V313.2H368.219V315.816H359.075V327.384H368.555V330H355.955ZM358.835 322.752V320.184H367.187V322.752H358.835ZM360.083 311.832L363.323 308.544H366.851L362.675 311.832H360.083ZM376.833 330V313.2H384.705C386.721 313.2 388.257 313.6 389.313 314.4C390.369 315.184 390.897 316.24 390.897 317.568C390.897 318.464 390.689 319.232 390.273 319.872C389.857 320.496 389.297 320.984 388.593 321.336C387.905 321.672 387.153 321.84 386.337 321.84L386.769 320.976C387.713 320.976 388.561 321.152 389.313 321.504C390.065 321.84 390.657 322.336 391.089 322.992C391.537 323.648 391.761 324.464 391.761 325.44C391.761 326.88 391.209 328 390.105 328.8C389.001 329.6 387.361 330 385.185 330H376.833ZM379.953 327.552H384.993C386.161 327.552 387.057 327.36 387.681 326.976C388.305 326.592 388.617 325.976 388.617 325.128C388.617 324.296 388.305 323.688 387.681 323.304C387.057 322.904 386.161 322.704 384.993 322.704H379.713V320.28H384.369C385.457 320.28 386.289 320.088 386.865 319.704C387.457 319.32 387.753 318.744 387.753 317.976C387.753 317.192 387.457 316.608 386.865 316.224C386.289 315.84 385.457 315.648 384.369 315.648H379.953V327.552ZM397.515 330L405.075 313.2H408.147L415.731 330H412.467L405.963 314.856H407.211L400.731 330H397.515ZM400.995 326.112L401.835 323.664H410.907L411.747 326.112H400.995ZM422.668 330V313.2H429.556C431.796 313.2 433.548 313.728 434.812 314.784C436.092 315.84 436.732 317.304 436.732 319.176C436.732 320.408 436.444 321.472 435.868 322.368C435.292 323.248 434.468 323.928 433.396 324.408C432.34 324.872 431.068 325.104 429.58 325.104H424.396L425.788 323.688V330H422.668ZM433.66 330L429.412 323.904H432.748L437.02 330H433.66ZM425.788 324.024L424.396 322.536H429.436C430.812 322.536 431.844 322.24 432.532 321.648C433.236 321.056 433.588 320.232 433.588 319.176C433.588 318.104 433.236 317.28 432.532 316.704C431.844 316.128 430.812 315.84 429.436 315.84H424.396L425.788 314.304V324.024ZM445.022 330V313.2H451.91C454.15 313.2 455.902 313.728 457.166 314.784C458.446 315.84 459.086 317.304 459.086 319.176C459.086 320.408 458.798 321.472 458.222 322.368C457.646 323.248 456.822 323.928 455.75 324.408C454.694 324.872 453.422 325.104 451.934 325.104H446.75L448.142 323.688V330H445.022ZM456.014 330L451.766 323.904H455.102L459.374 330H456.014ZM448.142 324.024L446.75 322.536H451.79C453.166 322.536 454.198 322.24 454.886 321.648C455.59 321.056 455.942 320.232 455.942 319.176C455.942 318.104 455.59 317.28 454.886 316.704C454.198 316.128 453.166 315.84 451.79 315.84H446.75L448.142 314.304V324.024ZM465.001 330L472.561 313.2H475.633L483.217 330H479.953L473.449 314.856H474.697L468.217 330H465.001ZM468.481 326.112L469.321 323.664H478.393L479.233 326.112H468.481ZM495.362 330.24C494.05 330.24 492.794 330.056 491.594 329.688C490.394 329.304 489.442 328.816 488.738 328.224L489.818 325.8C490.49 326.328 491.322 326.768 492.314 327.12C493.306 327.472 494.322 327.648 495.362 327.648C496.242 327.648 496.954 327.552 497.498 327.36C498.042 327.168 498.442 326.912 498.698 326.592C498.954 326.256 499.082 325.88 499.082 325.464C499.082 324.952 498.898 324.544 498.53 324.24C498.162 323.92 497.682 323.672 497.09 323.496C496.514 323.304 495.866 323.128 495.146 322.968C494.442 322.808 493.73 322.624 493.01 322.416C492.306 322.192 491.658 321.912 491.066 321.576C490.49 321.224 490.018 320.76 489.65 320.184C489.282 319.608 489.098 318.872 489.098 317.976C489.098 317.064 489.338 316.232 489.818 315.48C490.314 314.712 491.058 314.104 492.05 313.656C493.058 313.192 494.33 312.96 495.866 312.96C496.874 312.96 497.874 313.088 498.866 313.344C499.858 313.6 500.722 313.968 501.458 314.448L500.474 316.872C499.722 316.424 498.946 316.096 498.146 315.888C497.346 315.664 496.578 315.552 495.842 315.552C494.978 315.552 494.274 315.656 493.73 315.864C493.202 316.072 492.81 316.344 492.554 316.68C492.314 317.016 492.194 317.4 492.194 317.832C492.194 318.344 492.37 318.76 492.722 319.08C493.09 319.384 493.562 319.624 494.138 319.8C494.73 319.976 495.386 320.152 496.106 320.328C496.826 320.488 497.538 320.672 498.242 320.88C498.962 321.088 499.61 321.36 500.186 321.696C500.778 322.032 501.25 322.488 501.602 323.064C501.97 323.64 502.154 324.368 502.154 325.248C502.154 326.144 501.906 326.976 501.41 327.744C500.93 328.496 500.186 329.104 499.178 329.568C498.17 330.016 496.898 330.24 495.362 330.24ZM560.728 330L553.384 313.2H556.768L563.32 328.392H561.376L568 313.2H571.12L563.8 330H560.728ZM577.693 330V313.2H580.813V330H577.693ZM590.157 330V313.2H597.501C599.325 313.2 600.925 313.552 602.301 314.256C603.677 314.96 604.749 315.936 605.517 317.184C606.285 318.432 606.669 319.904 606.669 321.6C606.669 323.28 606.285 324.752 605.517 326.016C604.749 327.264 603.677 328.24 602.301 328.944C600.925 329.648 599.325 330 597.501 330H590.157ZM593.277 327.36H597.357C598.605 327.36 599.693 327.12 600.621 326.64C601.549 326.16 602.261 325.488 602.757 324.624C603.269 323.76 603.525 322.752 603.525 321.6C603.525 320.432 603.269 319.424 602.757 318.576C602.261 317.712 601.549 317.04 600.621 316.56C599.693 316.08 598.605 315.84 597.357 315.84H593.277V327.36ZM614.785 330V313.2H627.049V315.816H617.905V327.384H627.385V330H614.785ZM617.665 322.752V320.184H626.017V322.752H617.665ZM647.096 330V313.2H649.664L657.008 325.464H655.664L662.888 313.2H665.456L665.48 330H662.528L662.504 317.832H663.128L656.984 328.08H655.592L649.352 317.832H650.072V330H647.096ZM672.442 330L680.002 313.2H683.074L690.658 330H687.394L680.89 314.856H682.138L675.658 330H672.442ZM675.922 326.112L676.762 323.664H685.834L686.674 326.112H675.922ZM697.594 330V313.2H700.714V330H697.594ZM715.266 330.24C713.954 330.24 712.698 330.056 711.498 329.688C710.298 329.304 709.346 328.816 708.642 328.224L709.722 325.8C710.394 326.328 711.226 326.768 712.218 327.12C713.21 327.472 714.226 327.648 715.266 327.648C716.146 327.648 716.858 327.552 717.402 327.36C717.946 327.168 718.346 326.912 718.602 326.592C718.858 326.256 718.986 325.88 718.986 325.464C718.986 324.952 718.802 324.544 718.434 324.24C718.066 323.92 717.586 323.672 716.994 323.496C716.418 323.304 715.77 323.128 715.05 322.968C714.346 322.808 713.634 322.624 712.914 322.416C712.21 322.192 711.562 321.912 710.97 321.576C710.394 321.224 709.922 320.76 709.554 320.184C709.186 319.608 709.002 318.872 709.002 317.976C709.002 317.064 709.242 316.232 709.722 315.48C710.218 314.712 710.962 314.104 711.954 313.656C712.962 313.192 714.234 312.96 715.77 312.96C716.778 312.96 717.778 313.088 718.77 313.344C719.762 313.6 720.626 313.968 721.362 314.448L720.378 316.872C719.626 316.424 718.85 316.096 718.05 315.888C717.25 315.664 716.482 315.552 715.746 315.552C714.882 315.552 714.178 315.656 713.634 315.864C713.106 316.072 712.714 316.344 712.458 316.68C712.218 317.016 712.098 317.4 712.098 317.832C712.098 318.344 712.274 318.76 712.626 319.08C712.994 319.384 713.466 319.624 714.042 319.8C714.634 319.976 715.29 320.152 716.01 320.328C716.73 320.488 717.442 320.672 718.146 320.88C718.866 321.088 719.514 321.36 720.09 321.696C720.682 322.032 721.154 322.488 721.506 323.064C721.874 323.64 722.058 324.368 722.058 325.248C722.058 326.144 721.81 326.976 721.314 327.744C720.834 328.496 720.09 329.104 719.082 329.568C718.074 330.016 716.802 330.24 715.266 330.24ZM737.824 330.24C736.512 330.24 735.304 330.024 734.2 329.592C733.096 329.16 732.136 328.56 731.32 327.792C730.504 327.008 729.872 326.096 729.424 325.056C728.976 324 728.752 322.848 728.752 321.6C728.752 320.352 728.976 319.208 729.424 318.168C729.872 317.112 730.504 316.2 731.32 315.432C732.136 314.648 733.096 314.04 734.2 313.608C735.304 313.176 736.504 312.96 737.8 312.96C739.112 312.96 740.312 313.176 741.4 313.608C742.504 314.04 743.464 314.648 744.28 315.432C745.096 316.2 745.728 317.112 746.176 318.168C746.624 319.208 746.848 320.352 746.848 321.6C746.848 322.848 746.624 324 746.176 325.056C745.728 326.112 745.096 327.024 744.28 327.792C743.464 328.56 742.504 329.16 741.4 329.592C740.312 330.024 739.12 330.24 737.824 330.24ZM737.8 327.504C738.648 327.504 739.432 327.36 740.152 327.072C740.872 326.784 741.496 326.376 742.024 325.848C742.552 325.304 742.96 324.68 743.248 323.976C743.552 323.256 743.704 322.464 743.704 321.6C743.704 320.736 743.552 319.952 743.248 319.248C742.96 318.528 742.552 317.904 742.024 317.376C741.496 316.832 740.872 316.416 740.152 316.128C739.432 315.84 738.648 315.696 737.8 315.696C736.952 315.696 736.168 315.84 735.448 316.128C734.744 316.416 734.12 316.832 733.576 317.376C733.048 317.904 732.632 318.528 732.328 319.248C732.04 319.952 731.896 320.736 731.896 321.6C731.896 322.448 732.04 323.232 732.328 323.952C732.632 324.672 733.048 325.304 733.576 325.848C734.104 326.376 734.728 326.784 735.448 327.072C736.168 327.36 736.952 327.504 737.8 327.504ZM754.955 330V313.2H757.523L768.059 326.136H766.787V313.2H769.883V330H767.315L756.779 317.064H758.051V330H754.955Z" fill="black"/>
<path d="M534.2 330.288L524.216 321.384C523.672 320.904 523.224 320.44 522.872 319.992C522.536 319.544 522.28 319.096 522.104 318.648C521.944 318.2 521.864 317.744 521.864 317.28C521.864 316.416 522.096 315.664 522.56 315.024C523.024 314.368 523.68 313.864 524.528 313.512C525.376 313.144 526.368 312.96 527.504 312.96C528.544 312.96 529.448 313.12 530.216 313.44C531 313.76 531.608 314.224 532.04 314.832C532.472 315.44 532.688 316.16 532.688 316.992C532.688 317.728 532.496 318.4 532.112 319.008C531.744 319.616 531.168 320.176 530.384 320.688C529.616 321.2 528.632 321.704 527.432 322.2C526.696 322.504 526.104 322.808 525.656 323.112C525.224 323.416 524.912 323.728 524.72 324.048C524.528 324.352 524.432 324.704 524.432 325.104C524.432 325.424 524.536 325.72 524.744 325.992C524.952 326.264 525.248 326.48 525.632 326.64C526.016 326.784 526.472 326.856 527 326.856C527.928 326.856 528.784 326.632 529.568 326.184C530.352 325.72 531.024 325.048 531.584 324.168C532.16 323.288 532.552 322.224 532.76 320.976L536.432 322.08C536.08 323.728 535.44 325.168 534.512 326.4C533.6 327.632 532.472 328.6 531.128 329.304C529.8 329.992 528.312 330.336 526.664 330.336C525.384 330.336 524.24 330.136 523.232 329.736C522.224 329.32 521.424 328.752 520.832 328.032C520.256 327.312 519.968 326.504 519.968 325.608C519.968 324.728 520.16 323.944 520.544 323.256C520.944 322.568 521.552 321.936 522.368 321.36C523.2 320.784 524.256 320.232 525.536 319.704C526.384 319.336 527.048 319.008 527.528 318.72C528.008 318.432 528.344 318.16 528.536 317.904C528.744 317.632 528.848 317.36 528.848 317.088C528.848 316.752 528.736 316.48 528.512 316.272C528.288 316.064 527.952 315.96 527.504 315.96C527.04 315.96 526.672 316.08 526.4 316.32C526.144 316.56 526.016 316.856 526.016 317.208C526.016 317.416 526.056 317.624 526.136 317.832C526.232 318.04 526.408 318.28 526.664 318.552C526.936 318.824 527.312 319.176 527.792 319.608L536.648 327.48L534.2 330.288Z" fill="#B89268"/>
</svg>
