<svg xmlns="http://www.w3.org/2000/svg" viewBox="0 0 436.1 194.23">
  <path
    id="Calque_7"
    data-name="Calque 7"
    d="M373.15 168.7c9.99-8.46 12.74-23.72 11.65-36.19-.56-6.55-3.22-7.14-9.21-5.7-31.04 7.79-88.63-29.42-98.9 7.35-6.51 43.71 56.16 66.18 88.42 41.42 2.78-2.1 5.48-4.45 7.96-6.81l.08-.08Z"
    fill="#f2b027"
  />
  <path
    id="Calque_19"
    data-name="Calque 19"
    d="m308.23 111.43 13.71 71.66c.26 1.34-.41 2.68-1.33 2.68h-10.04c-.62 0-1.16-.62-1.34-1.52l-12.36-64.94c-.42-2.18.37-4.47 1.8-5.22l7.78-4.06c.75-.39 1.57.25 1.79 1.4Z"
    fill="#f0e5cf"
    opacity=".5"
  />
  <path
    id="Calque_8"
    data-name="Calque 8"
    d="m293.98 45.79 13.86 66.02c.26 1.23-.41 2.47-1.35 2.47h-10.15c-.63 0-1.18-.57-1.35-1.4L282.5 53.05c-.42-2.01.38-4.12 1.82-4.81l7.86-3.74c.76-.36 1.59.23 1.81 1.29Z"
    fill="#f0e5cf"
  />
  <path
    id="Calque_18"
    data-name="Calque 18"
    d="M271.08 1.48c-1.18 1.39-1.15 5.28-.23 7.64.38.58 1.05 1.66 1.99 1.58l5.51-1.84c3.75-5.63-3.58-11.73-7.27-7.38"
    fill="#f0e5cf"
  />
  <path
    id="Calque_17"
    data-name="Calque 17"
    d="M274.78 9.28c.02 2.23 9.15 5.66 12.27 8.1 3.5 2.62 7.07 5.17 10.57 7.79 4.88 3.74 11.4 8.11 14 12.81 1.7 3.07 2.52 3.89 6.02 2.21 5.16-2.48 10.3-4.85 15.7-7.2 2.08-.93 4.16-1.81 6.2-2.77 1.86-.88 4.83-2.3 5.32-3.87 1.57-7.15-41.63-14.03-49.42-15.8-3.51-.68-7.07-1.36-10.53-2.07-5.1-1.02-10.14.81-10.14.81Z"
    fill="#d04316"
  />
  <path
    id="Calque_11"
    data-name="Calque 11"
    d="M274.74 9.32c-1.2 1.57-3.44 3.86-3.98 5.79-.88 3.5 0 6.92-1.31 11.12-1.13 3.64-2.42 7.44-3.75 11.17-1.36 3.86-3.03 8.22-3.91 10.92-2.63 7.97-2.02 12.84 8.96 7.59 4.26-2.04 21.53-7.87 30.75-10.02 6.38-1.48 14.52-4.95 17.72-6.48 1.18-.57-7.87-5.71-9.78-7.45-3.96-3.13-8.2-6.6-12.41-9.95-4.41-3.51-8.91-7.01-12.64-9.64-3.81-2.49-7.23-2.92-9.6-3.09l-.04.05Z"
    fill="#f2b027"
  />
  <path
    id="Calque_16"
    data-name="Calque 16"
    d="M274.78 9.28c-2.16.42-5.55 1.39-8.7 3.89-4.08 3.24-5.69 7.42-6.24 8.74-6.7 16.16-34.68 40.03-30.71 45.09 1.64 2.09 8.29.44 12.14-.51 2.62-.65 2.09-.68 6.41-2.24 5.54-2 11.06-3.36 16.36-5.54 3.45-1.37 3.53-2.69 2.87-5.74-.97-5.27.41-12.85 1.39-18.92.84-5.18 1.16-8.44 2.34-12.93 1.3-4.93 2.87-8.95 4.14-11.84"
    fill="#d04316"
  />
  <path
    id="Calque_6"
    data-name="Calque 6"
    d="M428.33 180.24c-6.29-.61-9.94-.28-15.22-.62-.68-.04-1.22-.6-1.24-1.28-.29-11.65-1.01-77.28-.21-87.52.02-.23.09-.45.23-.64.87-1.25 3.31-2.19 5.23-1.85 3.01.35 18.35.68 17.49 2.85-.32 14.13 3.15 87.99.47 88.98-2.24.27-4.5.3-6.75.08m6.45-123.03c4.06 11.02-2.04 21.12-14.2 20.69-2.3.17-4.36-.95-6.56-1.86-1.5-.53-2.33-1.47-3.09-2.81-9.93-16.61 11.93-30.74 23.72-16.24z"
    fill="#f0e5cf"
  />
  <path
    id="Calque_15"
    data-name="Calque 15"
    d="M381.98 93.98c5.14 7.91 5.75 10.35 7.41 17.15 3.58 15.78 5.67 33.02.38 48.71-14.84 42.58-85.57 44.48-111.85 11.96-17.83-22.07-6.45-56.63-1.14-71.02 9.77-26.45 95.46-21.78 105.19-6.8Zm-89.83 3.12c-1.59.24-2.78.74-3.44 1.44-5.32 11.63 65.83 15.77 83.11 5.2 2.99-1.86 4.66-5.95.4-7.16-1.99-.65-5.13-.36-7.5.06-3.93.69-7.76 1.41-11.7 1.79-17.31 1.78-35.02 1.79-52.24-.95-2.75-.4-6.09-.76-8.56-.38h-.08Zm81.19 71.6c9.99-8.46 12.74-23.72 11.65-36.19-.56-6.55-3.22-7.14-9.21-5.7-31.04 7.79-88.63-29.42-98.9 7.35-6.51 43.71 56.16 66.18 88.42 41.42 2.78-2.1 5.48-4.45 7.96-6.81l.08-.08Z"
    fill="#f0e5cf"
  />
  <path
    id="Calque_14"
    data-name="Calque 14"
    d="M323.09 132.85c-6.4.95-5.77 9.81.55 10.36 2.71.21 5.43-1.95 5.61-4.69.18-3.1-3.09-5.87-6.06-5.68h-.11Z"
    fill="#f0e5cf"
  />
  <path
    id="Calque_13"
    data-name="Calque 13"
    d="M334.35 169.37c.74 4.22 6.23 2.31 6.63 0 .32-6.84-7.22-5.32-6.63 0"
    fill="#f0e5cf"
  />
  <path
    id="Calque_12"
    data-name="Calque 12"
    d="M360.24 150.5c-5.08 1.54-1.74 9.38 2.95 7.23 5.1-1.82 2.11-8.45-2.83-7.26z"
    fill="#f0e5cf"
  />
  <path
    id="Calque_5"
    data-name="Calque 5"
    d="M255.57 95.71c-2.79 12.4-5.14 12.76-17 9.58-6.04-1.28-14.14-2.95-18.59 2.3-3.37 4.98-.54 10.56 4.15 13.98 14.27 10.51 42.78 15.07 34.99 39.61-1.67 5.09-3.83 8.94-6.93 13.55-.82 1.2-1.76 2.41-2.86 3.32-11.4 10.59-70.15 13.47-54.77-12.21.9-1.37 2.2-2.61 3.88-2.43 10.83 1.14 37.41 10.25 36.97-6.2-.11-3.89-2.83-7.08-6.32-8.49-49.19-11.78-49.16-62.52 5.56-63.6 6.7.55 23.81 2.45 20.95 10.48l-.03.12Z"
    fill="#f0e5cf"
  />
  <path
    id="Calque_2"
    data-name="Calque 2"
    d="M98.01 181.43c2.1 4.96-18.53 2.22-25.74 2.3-2 .02-3.93-.78-5.29-2.24-10.05-10.77-15.79-36.72-26.02-45.54-21.39-19.25-11.36 33.24-13.53 40.92-.03 5.74-22.18 4.94-26.12 1.25-.21-.19-.29-.47-.26-.75 1.19-8.69-3.42-116.99.7-125.96.14-.3.44-.48.77-.49 30.65-.97 86.12-9.08 86.08 36.35v.08c4.25 38.88-32.18 26.85-14.42 52.77M28.6 73.09c-1.32-1.16-.06 32.35-.15 37.73 0 .43.29.81.71.9 45.74 9.93 40.27-52.06-.56-38.63"
    fill="#f0e5cf"
  />
  <path
    id="Calque_4"
    data-name="Calque 4"
    d="M182.34 124.1c.39 5.37.39 13.27-4.27 15.76-3.45 1.44-6.9.67-10.78.86-11.34.03-27.81-.06-36.57.03-3.11.01-4.73 1.54-4.44 4.97.67 10.5 10.66 18.06 21.15 19.38 5.74.86 11.41-.68 16.94-2.12 2.94-.71 5.74-1.24 8.42-.02 3.22 1.52 5.26 5.13 5.54 8.61.49 6.38-9.47 9.42-15.03 11.08-16.49 4.98-34.89 2.53-47.78-8.8-10.38-8.85-15.75-22.62-15.39-36.18.18-13.57 3.54-28.17 12.88-38.46 9.14-10.48 23.53-16.54 37.3-14.84 20.18 2.37 31.09 19.54 32.03 39.58v.13Zm-48.72-17.9c-4.56 3.48-12.35 13.2-5.92 17.16 3.61 2.01 8 1.71 12.03 1.77 5.58-.21 12.96.84 17.82-1.04 5.54-2.17 2.97-8.84.58-12.63-1.1-1.87-2.32-3.61-3.69-4.99-5.39-5.7-14.86-5.27-20.72-.35zm26.73-42.29c-3.29 4.61-7.76 8.68-12.62 11.59-2.05 1.2-4.92 1.04-7.26 1.8-15.06 4.95 1.67-27.62 21.32-23.07 4.72 1.09.58 6.56-1.38 9.58l-.06.09Z"
    fill="#f0e5cf"
  />
</svg>
