<svg width="494" height="161" viewBox="0 0 494 161" fill="none" xmlns="http://www.w3.org/2000/svg">
<g filter="url(#filter0_i_60_135)">
<path d="M160.259 0.996094V40.9961H80.2588V0.996094H160.259Z" fill="#A529FF"/>
</g>
<g filter="url(#filter1_ii_60_135)">
<path d="M80.2588 120.996L120.259 120.996L120.259 80.9958L80.2588 80.9959L80.2588 120.996Z" fill="#A529FF"/>
</g>
<path d="M40.2592 40.9965L40.2589 120.996L80.2614 160.996L80.2614 0.998458L40.2592 40.9965Z" fill="#8C00FF"/>
<g filter="url(#filter2_i_60_135)">
<path d="M120.259 120.996L120.259 40.9999L160.259 40.9999L160.259 80.996L120.259 120.996Z" fill="#8C00FF"/>
</g>
<path d="M192.636 87.6H197.82C200.736 87.6 203.094 87.996 204.894 88.788C206.694 89.58 208.044 90.66 208.944 92.028C209.844 93.36 210.33 94.872 210.402 96.564C210.474 98.688 210.042 100.542 209.106 102.126C208.206 103.71 206.982 104.916 205.434 105.744C203.886 106.572 202.194 106.95 200.358 106.878C198.522 106.77 196.704 106.122 194.904 104.934V104.448C194.904 104.448 195.084 104.448 195.444 104.448C195.84 104.448 196.326 104.394 196.902 104.286C197.478 104.142 198.072 103.89 198.684 103.53C199.332 103.17 199.944 102.63 200.52 101.91C201.096 101.19 201.546 100.218 201.87 98.994C201.978 98.562 202.05 98.094 202.086 97.59C202.158 97.05 202.176 96.582 202.14 96.186C202.104 94.206 201.51 92.64 200.358 91.488C199.242 90.3 197.676 89.706 195.66 89.706H193.122C193.122 89.706 193.086 89.544 193.014 89.22C192.942 88.86 192.852 88.5 192.744 88.14C192.672 87.78 192.636 87.6 192.636 87.6ZM193.23 87.6V120H185.454V87.6H193.23ZM185.562 116.598L185.778 120H181.89V119.46C181.926 119.46 182.034 119.46 182.214 119.46C182.394 119.46 182.502 119.46 182.538 119.46C183.33 119.46 183.996 119.19 184.536 118.65C185.112 118.074 185.418 117.39 185.454 116.598H185.562ZM185.562 90.948H185.454C185.418 90.12 185.112 89.454 184.536 88.95C183.996 88.41 183.33 88.14 182.538 88.14C182.466 88.14 182.34 88.14 182.16 88.14C182.016 88.14 181.908 88.14 181.836 88.14V87.6H185.778L185.562 90.948ZM193.122 116.598H193.23C193.266 117.39 193.554 118.074 194.094 118.65C194.634 119.19 195.318 119.46 196.146 119.46C196.218 119.46 196.326 119.46 196.47 119.46C196.65 119.46 196.758 119.46 196.794 119.46V120H192.852L193.122 116.598ZM224.655 87.6H230.487C231.963 87.6 233.403 87.762 234.807 88.086C236.211 88.374 237.471 88.86 238.587 89.544C239.703 90.192 240.585 91.092 241.233 92.244C241.917 93.36 242.259 94.764 242.259 96.456C242.259 97.716 241.989 98.976 241.449 100.236C240.945 101.46 240.135 102.522 239.019 103.422C237.939 104.322 236.517 104.916 234.753 105.204C235.797 105.528 236.787 106.158 237.723 107.094C238.695 108.03 239.451 108.912 239.991 109.74C240.135 110.028 240.387 110.496 240.747 111.144C241.107 111.756 241.557 112.476 242.097 113.304C242.673 114.096 243.267 114.924 243.879 115.788C244.599 116.76 245.229 117.516 245.769 118.056C246.309 118.56 246.867 118.92 247.443 119.136C248.019 119.352 248.685 119.46 249.441 119.46V120H244.905C242.961 120 241.305 119.856 239.937 119.568C238.605 119.28 237.435 118.758 236.427 118.002C235.455 117.21 234.555 116.148 233.727 114.816C233.403 114.348 233.061 113.79 232.701 113.142C232.341 112.458 231.981 111.774 231.621 111.09C231.261 110.406 230.937 109.74 230.649 109.092C230.397 108.444 230.217 107.904 230.109 107.472C229.641 106.32 229.101 105.492 228.489 104.988C227.913 104.448 227.373 104.178 226.869 104.178V103.692C226.869 103.692 226.995 103.692 227.247 103.692C227.499 103.692 227.823 103.692 228.219 103.692C228.975 103.692 229.713 103.566 230.433 103.314C231.189 103.026 231.873 102.504 232.485 101.748C233.097 100.956 233.547 99.804 233.835 98.292C233.907 98.076 233.961 97.77 233.997 97.374C234.069 96.978 234.087 96.528 234.051 96.024C233.979 94.692 233.727 93.63 233.295 92.838C232.899 92.01 232.395 91.398 231.783 91.002C231.171 90.57 230.541 90.282 229.893 90.138C229.281 89.958 228.741 89.868 228.273 89.868C227.589 89.832 226.959 89.832 226.383 89.868C225.843 89.868 225.429 89.85 225.141 89.814C225.105 89.814 225.051 89.634 224.979 89.274C224.907 88.878 224.835 88.5 224.763 88.14C224.691 87.78 224.655 87.6 224.655 87.6ZM225.195 87.6V120H217.365V87.6H225.195ZM217.527 116.598L217.743 120H213.855V119.46C213.891 119.46 213.981 119.46 214.125 119.46C214.305 119.46 214.431 119.46 214.503 119.46C215.295 119.46 215.961 119.19 216.501 118.65C217.077 118.074 217.383 117.39 217.419 116.598H217.527ZM217.527 90.948H217.419C217.383 90.12 217.077 89.454 216.501 88.95C215.961 88.41 215.313 88.14 214.557 88.14C214.449 88.14 214.305 88.14 214.125 88.14C213.981 88.14 213.891 88.14 213.855 88.14V87.6H217.743L217.527 90.948ZM225.087 116.598H225.195C225.195 117.498 225.501 118.2 226.113 118.704C226.761 119.208 227.445 119.46 228.165 119.46C228.165 119.46 228.237 119.46 228.381 119.46C228.525 119.46 228.633 119.46 228.705 119.46V120H224.817L225.087 116.598ZM260.414 87.6V120H252.638V87.6H260.414ZM273.05 117.84L274.292 120H260.306V117.84H273.05ZM271.214 102.882V105.042H260.306V102.882H271.214ZM273.644 87.6V89.76H260.306V87.6H273.644ZM276.506 110.064L274.454 120H265.112L266.786 117.84C268.334 117.84 269.702 117.534 270.89 116.922C272.114 116.274 273.158 115.374 274.022 114.222C274.886 113.034 275.552 111.648 276.02 110.064H276.506ZM271.214 104.934V109.686H270.674V109.254C270.674 108.066 270.296 107.076 269.54 106.284C268.82 105.492 267.83 105.078 266.57 105.042V104.934H271.214ZM271.214 98.238V102.99H266.57V102.882C267.83 102.846 268.82 102.432 269.54 101.64C270.296 100.812 270.674 99.804 270.674 98.616V98.238H271.214ZM273.644 89.652V95.376H273.104V94.89C273.104 93.306 272.672 92.064 271.808 91.164C270.98 90.264 269.774 89.796 268.19 89.76V89.652H273.644ZM273.644 86.79V88.086L267.974 87.6C269.018 87.6 270.116 87.51 271.268 87.33C272.42 87.114 273.212 86.934 273.644 86.79ZM252.746 116.598L253.016 120H249.02V119.46C249.02 119.46 249.128 119.46 249.344 119.46C249.56 119.46 249.686 119.46 249.722 119.46C250.514 119.46 251.18 119.19 251.72 118.65C252.296 118.074 252.602 117.39 252.638 116.598H252.746ZM252.746 91.002H252.638C252.602 90.174 252.296 89.49 251.72 88.95C251.18 88.41 250.514 88.14 249.722 88.14C249.686 88.14 249.56 88.14 249.344 88.14C249.128 88.14 249.02 88.14 249.02 88.14V87.6H253.016L252.746 91.002ZM290.516 86.898C291.236 86.898 292.1 86.934 293.108 87.006C294.152 87.078 295.178 87.168 296.186 87.276C297.194 87.348 298.076 87.456 298.832 87.6C299.624 87.708 300.164 87.816 300.452 87.924L299.75 94.512H299.264C299.264 92.856 298.688 91.542 297.536 90.57C296.384 89.598 294.728 89.112 292.568 89.112C290.84 89.112 289.436 89.49 288.356 90.246C287.312 91.002 286.754 92.01 286.682 93.27C286.61 93.918 286.718 94.512 287.006 95.052C287.33 95.556 287.762 96.006 288.302 96.402C288.878 96.798 289.508 97.194 290.192 97.59L298.67 102.828C300.11 103.548 301.244 104.592 302.072 105.96C302.9 107.328 303.26 108.984 303.152 110.928C303.044 112.944 302.45 114.69 301.37 116.166C300.326 117.642 298.868 118.776 296.996 119.568C295.16 120.324 292.982 120.702 290.462 120.702C288.914 120.702 287.474 120.576 286.142 120.324C284.81 120.072 283.658 119.73 282.686 119.298C281.75 118.866 281.03 118.38 280.526 117.84C280.238 117.12 280.112 116.256 280.148 115.248C280.184 114.204 280.346 113.178 280.634 112.17C280.922 111.126 281.282 110.262 281.714 109.578H282.146C282.038 111.198 282.326 112.692 283.01 114.06C283.73 115.428 284.774 116.526 286.142 117.354C287.51 118.146 289.148 118.542 291.056 118.542C293.144 118.542 294.71 118.056 295.754 117.084C296.798 116.112 297.32 114.978 297.32 113.682C297.32 112.71 296.996 111.846 296.348 111.09C295.736 110.298 294.71 109.524 293.27 108.768L285.602 103.908C283.802 102.972 282.488 101.73 281.66 100.182C280.868 98.634 280.58 96.942 280.796 95.106C280.976 93.378 281.48 91.902 282.308 90.678C283.172 89.454 284.306 88.518 285.71 87.87C287.114 87.222 288.716 86.898 290.516 86.898ZM300.452 87.384L300.398 88.356H294.62V87.384H300.452ZM324.91 87.762V120H317.08V87.762H324.91ZM336.682 87.546V89.706H305.362V87.546H336.682ZM336.682 89.544V95.268H336.088V94.782C336.124 93.234 335.692 92.01 334.792 91.11C333.928 90.21 332.722 89.742 331.174 89.706V89.544H336.682ZM336.682 86.736V88.086L330.958 87.546C331.642 87.546 332.38 87.51 333.172 87.438C333.964 87.33 334.684 87.222 335.332 87.114C335.98 86.97 336.43 86.844 336.682 86.736ZM317.188 116.598V120H313.57V119.46C313.57 119.46 313.66 119.46 313.84 119.46C314.056 119.46 314.164 119.46 314.164 119.46C314.956 119.46 315.622 119.19 316.162 118.65C316.738 118.074 317.044 117.39 317.08 116.598H317.188ZM324.748 116.598H324.91C324.91 117.39 325.198 118.074 325.774 118.65C326.35 119.19 327.052 119.46 327.88 119.46C327.88 119.46 327.97 119.46 328.15 119.46C328.366 119.46 328.474 119.46 328.474 119.46V120H324.748V116.598ZM310.87 89.544V89.706C309.286 89.742 308.062 90.21 307.198 91.11C306.37 92.01 305.956 93.234 305.956 94.782V95.268H305.362V89.544H310.87ZM305.362 86.736C305.686 86.808 306.154 86.916 306.766 87.06C307.414 87.204 308.116 87.33 308.872 87.438C309.664 87.51 310.384 87.546 311.032 87.546L305.362 88.086V86.736ZM351.015 87.6V120H343.239V87.6H351.015ZM343.401 116.598V120H339.459V119.46C339.459 119.46 339.567 119.46 339.783 119.46C339.999 119.46 340.125 119.46 340.161 119.46C340.989 119.46 341.709 119.19 342.321 118.65C342.933 118.074 343.239 117.39 343.239 116.598H343.401ZM350.907 116.598H351.015C351.051 117.39 351.357 118.074 351.933 118.65C352.545 119.19 353.283 119.46 354.147 119.46C354.147 119.46 354.237 119.46 354.417 119.46C354.633 119.46 354.759 119.46 354.795 119.46V120H350.907V116.598ZM350.907 91.002V87.6H354.795L354.741 88.14C354.741 88.14 354.651 88.14 354.471 88.14C354.291 88.14 354.183 88.14 354.147 88.14C353.283 88.14 352.545 88.41 351.933 88.95C351.357 89.49 351.051 90.174 351.015 91.002H350.907ZM343.401 91.002H343.239C343.239 90.174 342.933 89.49 342.321 88.95C341.709 88.41 340.971 88.14 340.107 88.14C340.107 88.14 339.999 88.14 339.783 88.14C339.567 88.14 339.459 88.14 339.459 88.14V87.6H343.401V91.002ZM376.113 86.898C377.769 86.898 379.425 87.006 381.081 87.222C382.773 87.402 384.339 87.69 385.779 88.086C387.255 88.446 388.497 88.878 389.505 89.382V97.968H389.073C388.497 95.664 387.633 93.864 386.481 92.568C385.365 91.272 384.069 90.354 382.593 89.814C381.117 89.274 379.515 89.004 377.787 89.004C375.267 89.004 373.143 89.598 371.415 90.786C369.687 91.974 368.373 93.702 367.473 95.97C366.609 98.202 366.177 100.902 366.177 104.07C366.177 107.058 366.573 109.632 367.365 111.792C368.157 113.952 369.327 115.626 370.875 116.814C372.423 118.002 374.295 118.596 376.491 118.596C377.643 118.596 378.741 118.416 379.785 118.056C380.829 117.66 381.747 117.102 382.539 116.382C383.331 115.626 383.889 114.708 384.213 113.628L384.267 107.148C384.267 106.428 384.051 105.888 383.619 105.528C383.223 105.168 382.647 104.988 381.891 104.988H381.135V104.502H395.013V104.988H394.311C392.727 104.988 391.953 105.708 391.989 107.148V114.33C391.233 115.338 390.063 116.328 388.479 117.3C386.895 118.272 385.023 119.082 382.863 119.73C380.703 120.378 378.345 120.702 375.789 120.702C372.189 120.666 369.057 119.982 366.393 118.65C363.729 117.282 361.659 115.338 360.183 112.818C358.707 110.298 357.969 107.274 357.969 103.746C357.969 100.218 358.707 97.212 360.183 94.728C361.659 92.208 363.747 90.282 366.447 88.95C369.147 87.582 372.369 86.898 376.113 86.898ZM407.859 87.6V120H400.083V87.6H407.859ZM420.495 117.84L421.737 120H407.751V117.84H420.495ZM418.659 102.882V105.042H407.751V102.882H418.659ZM421.089 87.6V89.76H407.751V87.6H421.089ZM423.951 110.064L421.899 120H412.557L414.231 117.84C415.779 117.84 417.147 117.534 418.335 116.922C419.559 116.274 420.603 115.374 421.467 114.222C422.331 113.034 422.997 111.648 423.465 110.064H423.951ZM418.659 104.934V109.686H418.119V109.254C418.119 108.066 417.741 107.076 416.985 106.284C416.265 105.492 415.275 105.078 414.015 105.042V104.934H418.659ZM418.659 98.238V102.99H414.015V102.882C415.275 102.846 416.265 102.432 416.985 101.64C417.741 100.812 418.119 99.804 418.119 98.616V98.238H418.659ZM421.089 89.652V95.376H420.549V94.89C420.549 93.306 420.117 92.064 419.253 91.164C418.425 90.264 417.219 89.796 415.635 89.76V89.652H421.089ZM421.089 86.79V88.086L415.419 87.6C416.463 87.6 417.561 87.51 418.713 87.33C419.865 87.114 420.657 86.934 421.089 86.79ZM400.191 116.598L400.461 120H396.465V119.46C396.465 119.46 396.573 119.46 396.789 119.46C397.005 119.46 397.131 119.46 397.167 119.46C397.959 119.46 398.625 119.19 399.165 118.65C399.741 118.074 400.047 117.39 400.083 116.598H400.191ZM400.191 91.002H400.083C400.047 90.174 399.741 89.49 399.165 88.95C398.625 88.41 397.959 88.14 397.167 88.14C397.131 88.14 397.005 88.14 396.789 88.14C396.573 88.14 396.465 88.14 396.465 88.14V87.6H400.461L400.191 91.002Z" fill="#8C00FF"/>
<path d="M198 9V1H214V9H198ZM182 57V49H198V25H190V17H214V49H230V57H182ZM238 57V49H246V41H254V33H246V25H238V17H254V25H262V33H270V25H278V17H294V25H286V33H278V41H286V49H294V57H278V49H270V41H262V49H254V57H238ZM310 57V49H302V25H310V17H350V25H358V41H318V49H350V57H310ZM318 33H342V25H318V33ZM374 57V49H390V9H382V1H406V49H422V57H374Z" fill="#A529FF"/>
<defs>
<filter id="filter0_i_60_135" x="80.2588" y="0.996094" width="87" height="40" filterUnits="userSpaceOnUse" color-interpolation-filters="sRGB">
<feFlood flood-opacity="0" result="BackgroundImageFix"/>
<feBlend mode="normal" in="SourceGraphic" in2="BackgroundImageFix" result="shape"/>
<feColorMatrix in="SourceAlpha" type="matrix" values="0 0 0 0 0 0 0 0 0 0 0 0 0 0 0 0 0 0 127 0" result="hardAlpha"/>
<feOffset dx="7"/>
<feGaussianBlur stdDeviation="3.5"/>
<feComposite in2="hardAlpha" operator="arithmetic" k2="-1" k3="1"/>
<feColorMatrix type="matrix" values="0 0 0 0 0 0 0 0 0 0 0 0 0 0 0 0 0 0 0.25 0"/>
<feBlend mode="normal" in2="shape" result="effect1_innerShadow_60_135"/>
</filter>
<filter id="filter1_ii_60_135" x="73.2588" y="80.9958" width="54" height="40.0002" filterUnits="userSpaceOnUse" color-interpolation-filters="sRGB">
<feFlood flood-opacity="0" result="BackgroundImageFix"/>
<feBlend mode="normal" in="SourceGraphic" in2="BackgroundImageFix" result="shape"/>
<feColorMatrix in="SourceAlpha" type="matrix" values="0 0 0 0 0 0 0 0 0 0 0 0 0 0 0 0 0 0 127 0" result="hardAlpha"/>
<feOffset dx="-7"/>
<feGaussianBlur stdDeviation="3.5"/>
<feComposite in2="hardAlpha" operator="arithmetic" k2="-1" k3="1"/>
<feColorMatrix type="matrix" values="0 0 0 0 0 0 0 0 0 0 0 0 0 0 0 0 0 0 0.25 0"/>
<feBlend mode="normal" in2="shape" result="effect1_innerShadow_60_135"/>
<feColorMatrix in="SourceAlpha" type="matrix" values="0 0 0 0 0 0 0 0 0 0 0 0 0 0 0 0 0 0 127 0" result="hardAlpha"/>
<feOffset dx="7"/>
<feGaussianBlur stdDeviation="3.5"/>
<feComposite in2="hardAlpha" operator="arithmetic" k2="-1" k3="1"/>
<feColorMatrix type="matrix" values="0 0 0 0 0 0 0 0 0 0 0 0 0 0 0 0 0 0 0.25 0"/>
<feBlend mode="normal" in2="effect1_innerShadow_60_135" result="effect2_innerShadow_60_135"/>
</filter>
<filter id="filter2_i_60_135" x="120.259" y="41" width="40" height="86.9961" filterUnits="userSpaceOnUse" color-interpolation-filters="sRGB">
<feFlood flood-opacity="0" result="BackgroundImageFix"/>
<feBlend mode="normal" in="SourceGraphic" in2="BackgroundImageFix" result="shape"/>
<feColorMatrix in="SourceAlpha" type="matrix" values="0 0 0 0 0 0 0 0 0 0 0 0 0 0 0 0 0 0 127 0" result="hardAlpha"/>
<feOffset dy="7"/>
<feGaussianBlur stdDeviation="3.5"/>
<feComposite in2="hardAlpha" operator="arithmetic" k2="-1" k3="1"/>
<feColorMatrix type="matrix" values="0 0 0 0 0 0 0 0 0 0 0 0 0 0 0 0 0 0 0.25 0"/>
<feBlend mode="normal" in2="shape" result="effect1_innerShadow_60_135"/>
</filter>
</defs>
</svg>
